<?xml version="1.0" encoding="utf-8"?>
<!-- Generator: Adobe Illustrator 22.1.0, SVG Export Plug-In . SVG Version: 6.00 Build 0)  -->
<svg version="1.1" id="Layer_3" xmlns="http://www.w3.org/2000/svg" xmlns:xlink="http://www.w3.org/1999/xlink" x="0px" y="0px"
	 viewBox="0 0 300 142.5" style="enable-background:new 0 0 300 142.5;" xml:space="preserve">
<style type="text/css">
	.st0{fill:#FFFFFF;}
</style>
<g>
	<path class="st0" d="M292.2,64.9c-1.1-4.2-3.2-7.8-6.1-10.9c-2.5-2.7-4.9-5.4-7.2-8.3c-1.1-1.4-2.1-3-2.3-4.9
		c-0.2-1.5,0.1-2.8,1.4-3.8c1-0.8,2-1.3,3.2-1.8c1.5-0.7,3.1-1.3,4.5-2.2c0.6-0.4,1.2-0.9,1.8-1.6c-1.6,0.4-3,0.7-4.5,1
		c1-0.9,2-1.9,2-3.5c-1,2-3,2.4-4.9,3.1c0.1-0.6,0.4-1.1,0.3-1.7c0-0.1,0-0.3-0.2-0.4c-0.6,1.8-2,2.8-3.3,3.8
		c-1.7,1.4-2.4,3.4-2.8,5.4c-0.6,2.8,0.4,5.4,1.8,7.8c1.4,2.4,3.2,4.5,5,6.7c2,2.4,3.8,5.1,5.3,7.9c2.9,5.3,3.7,10.9,2.1,16.8
		c-0.6,2.2-1.2,4.4-2.4,6.4c-1.5,2.4-3.5,4.3-6,5.6c-0.4,0.2-0.9,0.4-1.4,0.5c0.7-0.6,1.3-1.4,1.8-2.3c-2,1.5-4.3,2.1-6.8,1.8
		c1.7-0.6,3.2-1.6,4.5-2.9c-0.3-0.1-0.5,0.1-0.7,0.2c-1.3,0.7-2.7,1.2-4.2,1.2c-2.2,0.1-4.1-0.7-5.6-2.3c-1-1-1.6-2.2-2-3.6
		c-0.7-2.9-1.7-5.8-2.9-8.5c-0.8-1.6-1.1-3.2-1.3-4.9c-0.3-3.2-0.6-6.3-0.6-9.5c-0.1-3.2,0.3-6.4,0.8-9.5c0.4-2.6,0.7-5.3,0.4-7.9
		c0-0.2,0-0.4,0.1-0.6c2.4-2.5,3.9-5.6,5.6-8.5c0.5-0.8,0.9-1.7,1.3-2.6c0.2-0.4,0.2-0.8,0.2-1.2c0-0.9-1-1.5-1.8-1
		c-2,1.2-4.3,2.1-6.5,3.1c-0.5,0.2-1.1,0.8-1.7,0.7c-0.5-0.1-0.9-0.7-1.4-1.1c-0.2-0.2-0.3-0.4-0.2-0.6c0.7-1.9,1.1-3.8,1.2-5.8
		c0-0.4,0.1-0.7,0-1.1c-0.3-1-1.1-1.3-1.8-0.6c-1.3,1.1-2.6,2.3-3.8,3.5c-0.1,0.1-0.3,0.2-0.4,0.4c-0.9,1.2-2.1,1.7-3.6,1.6
		c-1.7-0.1-3.4,0.4-4.9,1.1c-0.9,0.4-1.7,0.6-2.7,0.5c-0.8-0.1-1.3,0.3-1.6,1c-0.3,0.6-0.5,1.1-0.8,1.7c-0.4,0.9-0.5,1-1.5,0.7
		c-0.9-0.2-1.8-0.5-2.7-0.7c-1-0.2-1.4,0-1.9,1c-0.6,1.4-1,3-1.7,4.4c-0.3,0.5-0.1,1,0.4,1.2c0.5,0.2,0.6,0.6,0.7,1
		c0.1,0.5,0.2,0.9,0.5,1.5c0.1-0.7,0.1-1.1,0.1-1.6c0-0.3,0.2-0.5,0.5-0.4c0.7,0.1,1.3,0.2,2,0.3c0.3,0,0.5,0.2,0.5,0.6
		c0,0.4,0,0.8,0.3,1.2c0.2-0.3,0.2-0.6,0.3-0.9c0.1-0.4,0.2-0.6,0.7-0.4c1,0.3,2.1,0.5,3,1.1c1.1,0.7,1.6,1.9,1.2,3.1
		c-0.3,0.8-1.7,1.8-2.5,1.8c-0.3,0-0.5-0.2-0.4-0.5c0.1-0.3,0.2-0.7,0.1-1.1c-0.5,0.2-0.6,0.6-0.8,1c-0.1,0.3-0.3,0.5-0.7,0.3
		c-0.1,0-0.2,0-0.3-0.1c-1.3-0.2-1.3-0.3-1.3-1.5c0-0.3,0.2-0.8-0.2-0.8c-0.3-0.1-0.5,0.4-0.6,0.7c-0.5,1.2-0.6,2.3,0.3,3.5
		c1.2,1.6,2.4,3.2,2.8,5.2c0.1,0.4,0.3,1,0,1.3c-0.3,0.3-0.8,0-1.2-0.2c-2.6-1.1-5.1-2.5-7.2-4.5c-3.1-2.8-5.4-6.2-8-9.3
		c-2.2-2.6-2.9-5.6-2.7-8.9c0-0.8,0-1.6-0.3-2.4c-0.1-0.4,0-0.8-0.1-1.2c-0.1-1.6-0.8-2.8-2.1-3.7c-0.2-0.1-0.4-0.2-0.6-0.3
		c-0.2-0.1-0.5-0.2-0.6,0c-0.2,0.2,0.1,0.4,0.2,0.6c0.5,0.8,0.8,1.7,1.1,2.6c0,0.1,0.1,0.2,0,0.3c-0.1,0.1-0.3,0-0.4,0
		c-0.1-0.1-0.2-0.1-0.2-0.2c-0.5-1.4-1.7-2-2.8-2.8c-0.5-0.4-1.2-0.5-1.9-0.4c-0.1,0-0.3,0-0.4,0.2c0,0.2,0.2,0.2,0.3,0.3
		c1.1,0.6,1.9,1.6,2.6,2.6c0.1,0.1,0.3,0.3,0.1,0.5c-0.1,0.1-0.4,0.1-0.6,0c-0.1,0-0.1-0.1-0.2-0.2c-1.8-1.6-3.9-2-6.2-1.5
		c-0.2,0-0.5,0.1-0.7,0.1c0.1-0.1,0.2-0.1,0.3-0.2c0.4-0.2,0.5-0.5,0.5-0.9c0-0.4-0.3-0.5-0.6-0.7c-0.7-0.3-1.4-0.5-2.1-0.8
		c-5-1.8-8.3-5.3-10.1-10.2c-0.1-0.3-0.2-0.6-0.3-0.9c-0.3-0.9-0.6-1-1.5-0.7c-2.3,0.9-4.7,1.7-7,2.3c-3.8,0.9-7.7,1.3-11.6,1
		c-7.2-0.5-13.7-3-19.6-7.1c-3.3-2.3-6.2-4.9-8.7-8.1h-1.7c-1.1,1.5-2.4,2.9-3.8,4.2c-5.6,5.2-12.1,8.8-19.6,10.3
		c-6.9,1.4-13.7,0.7-20.4-1.5c-1-0.3-2-0.7-3-1c-1.3-0.5-1.5-0.4-1.9,0.9c-0.6,1.8-1.4,3.6-2.6,5.1c-2,2.7-4.6,4.5-7.7,5.7
		c-0.8,0.3-1.5,0.6-2.3,0.9c-0.3,0.1-0.5,0.2-0.5,0.6c0,0.4,0.2,0.6,0.5,0.8c1.2,0.6,2.4,1.1,3.6,1.8c3.8,2.3,6.4,5.6,8.2,9.5
		c1.6,3.5,2.4,7.2,2.7,11c0.6,7.4-0.8,14.6-2.8,21.7c-1.5,5.3-3.4,10.5-5.6,15.6c-0.1,0.2-0.2,0.4-0.3,0.7c0-1,0-1.8-0.3-2.6
		c-0.2-0.6-0.4-1.2-0.9-1.7c-1-0.9-1.7-2-2.6-3c-1.2-1.2-2.6-1.6-4.2-1c-0.9,0.3-1.8,0.6-2.8,0.7c-0.9,0-1.7-0.2-2.5-0.7
		c-3.6-2.4-6.9-5.1-10.3-7.7c-1.9-1.4-3.7-2.9-5.6-4.4c-0.3-0.2-0.5-0.4-0.1-0.7c3.1-2.6,5.4-5.8,7.5-9.1c3-4.6,5.1-9.5,7.1-14.6
		c0.2-0.5,0.5-1.1,0.7-1.7c0.2-0.6,0.6-1,1.2-1.2c0.4-0.1,0.7-0.2,1.1-0.4c1.5-0.4,2.7-1.2,3.6-2.3c0.4-0.5,0.7-0.5,1.3-0.3
		c1.2,0.5,2,1.5,2.6,2.6c0.1,0.2,0.2,0.5,0.4,0.7c0,0,0.1-0.1,0.1-0.1c0.2-2-0.4-4.5-2.8-5.7c-0.1,0-0.1-0.1-0.2-0.1
		c-0.3-0.1-0.4-0.4-0.3-0.6c0.1-0.3,0.4-0.1,0.6-0.1c1.2,0.4,2.4,0.8,3.6,1.4c0.9,0.4,1.8,0.9,2.7,1.3c0-0.1,0-0.2,0-0.2
		c-1.2-1.4-2.2-2.9-3.6-4.1c-1.2-1.1-2.5-1.8-4.2-1.8c1.3-0.4,2.7-0.1,4.1-0.4c-2-1.1-4-2.2-6.4-1.5c-0.4,0.1-0.8,0.1-1.2,0.1
		c-0.9-0.1-1.6,0.3-2.2,0.9c-0.5,0.6-0.9,1.3-1.2,2.1c-0.5,1.6-0.9,3.2-1.3,4.9c-0.1,0.4-0.2,0.9-0.4,1.3c-1.9,3.2-3.7,6.6-5.9,9.6
		c-2,2.8-4.4,5.2-7.5,6.9c-1.7,0.9-3.6,1.4-5.6,1.5c-0.2,0-0.4,0.1-0.5-0.1c-0.1-0.2,0.1-0.4,0.2-0.5c0.4-0.6,1-0.9,1.6-1.3
		c1.4-0.8,2.8-1.7,4-2.9c1.2-1.1,1.8-2.5,2.6-3.9c0.3-0.6,0.2-1.3-0.4-1.8c-0.4-0.3-0.5-0.8-0.8-1.2c-0.1-0.1-0.2-0.3-0.4-0.4
		c-0.2,0.4,0,0.7,0,1.1c0,0.4-0.1,0.6-0.5,0.7c-0.1,0-0.3,0.1-0.4,0.2c-0.9,0.4-0.9,0.4-1.6-0.2c0,0-0.1,0-0.1,0.1
		c-0.1,0.3,0.2,0.8-0.2,1c-0.6,0.5-1.3,0.8-2,0.9c-0.5,0.1-1,0.1-1.5-0.1c-0.5-0.2-0.8-0.5-1-1c-0.2-0.4-0.1-0.6,0.4-0.6
		c2.9,0,5.2-1.1,6.4-3.9c0.1-0.2,0.2-0.4,0.4-0.5c2.3-1.4,3.1-3.5,2.4-6.1c-0.3-1.2-0.7-2.3-1.2-3.4c-0.9-1.9-2.4-2.8-4.5-2.8
		c-1.3,0-2.6,0.2-3.9,0.4c-0.9,0.1-1.8,0.3-2.7,0.1c-0.5-0.1-0.8-0.3-1.1-0.8c-0.9-1.9-2.3-3.3-4.3-4c-0.9-0.3-1.7-0.4-2.6-0.5
		c-2.1-0.3-4.2-0.2-6.1,0.8c-0.4,0.2-0.5-0.1-0.6-0.3c-1.7-2.8-3.6-5.4-5.9-7.7C27.2,14,25.7,13,24,12c-0.7-0.4-1.4-0.2-1.8,0.6
		c-0.4,0.9-0.3,1.8,0,2.7c1,3.9,2.4,7.7,4.1,11.3c0.1,0.2,0.2,0.4,0.3,0.6c-0.3,0-0.4-0.2-0.6-0.3c-3.7-2.6-7.6-4.8-11.9-6.4
		c-0.9-0.3-1.9-0.6-2.8-0.9c-1.5-0.3-2.6,0.5-2.5,2.1c0,1,0.4,2,0.9,2.9c3.6,6.6,8,12.6,13.5,17.8c1.2,1.1,2.4,2,3.7,2.9
		c0.3,0.2,0.5,0.5,0.6,0.9c0.3,1.8,0.6,3.5,0.9,5.3c0.3,1.4,0,2.7-0.3,4C27,60,24.9,64,22.7,68c-1.5,2.7-3.1,5.4-4.3,8.2
		c-1,2.2-1.6,4.5-1.5,6.9c0,0.3-0.1,0.6-0.4,0.8c-0.6,0.7-1.2,1.3-1.8,2c-0.2,0.2-0.4,0.5-0.4,0.8c0,1,0,2,0,3
		c0,0.5,0.2,0.6,0.6,0.4c0.4-0.2,0.9-0.5,1.3-0.7c0.2-0.1,0.4-0.2,0.5,0.1c0.7,2,2.1,3.5,3.5,5c0.6,0.7,0.8,1.4,0.6,2.2
		c-0.1,0.3-0.1,0.7-0.2,1c-0.6,2-2.1,3.2-4.3,3.2c-1.3,0-2.6,0-3.9,0.2c-1.1,0.2-2.1,0.7-3.1,1.1c-0.8,0.3-1.1,1.1-1.3,1.9
		c-0.6,2.2-0.4,4.4,0.1,6.7c0.4,1.8,1,3.5,1.6,5.2c0.1,0.4,0.2,0.7,0.3,1.1c0.4,1,0.3,1.8-0.5,2.5c-0.1,0.1-0.3,0.3-0.4,0.5
		c-1,1.4-0.9,2.6,0.2,3.9c0.4,0.4,0.3,0.6-0.1,0.9c-0.4,0.3-0.9,0.5-1.4,0.6c-0.3,0.1-0.7,0.2-1,0.2c-0.1,0-0.3,0-0.3,0.2
		c0,0.1,0.2,0.2,0.3,0.2c1.5,0.5,3,0.7,4.4-0.2c0.6-0.4,1.1,0,1.6,0.2c0.3,0.1,0.1,0.3,0,0.4c-0.3,0.3-0.7,0.5-1,0.8
		c-0.5,0.3-1,0.6-1.4,0.9c-0.2,0.2-0.8,0.2-0.7,0.5c0.1,0.3,0.6,0.1,0.9,0.1c0.7-0.1,1.5,0,2.2-0.2c1.2-0.2,2.1-0.8,2.9-1.7
		c0-0.1,0.1-0.1,0.1-0.2c0.2-0.2,0.5-0.3,0.7-0.2c0.2,0.1,0,0.4-0.1,0.6c-0.5,1.3-1.4,2.2-2.8,2.5c-0.1,0-0.3,0.1-0.4,0.2
		c0,0,0,0.1-0.1,0.2c0.7,0.3,1.3,0.3,2,0.1c1.8-0.5,2.8-1.7,3.5-3.3c0.2-0.5,0.4-0.8,0.9-1.1c1.1-0.7,1.4-2,0.8-3.4
		c-1.5-3.4-3.1-6.8-4.7-10.1c-0.3-0.7-0.5-1.3-0.7-2c-0.1-0.5-0.1-1.1,0.2-1.6c0.7-1.4,1.3-1.8,2.7-1.4c1.2,0.3,2.3,0.8,3.5,1.4
		c1.6,0.8,3.3,1.6,5.2,1.9c2.7,0.4,4.8-0.5,6.5-2.5c1.6-1.9,2.4-4.2,2.7-6.6c0.1-1,0.2-2.1,0.6-3.1c0.1-0.3,0.2-0.4,0.6-0.4
		c2,0.4,4.1,0.7,6.2,1.1c2.7,0.5,3.9,2.1,4,4.8c0,2-0.4,4-0.8,5.9c-0.2,0.9-0.4,1.8-0.9,2.6c-0.3,0.4-0.4,0.9-0.4,1.5
		c0,1.2,0.7,1.8,1.9,1.7c0.6-0.1,1.3-0.3,1.9-0.5c3.6-1.4,7.2-2.7,10.8-4.1c1.6-0.6,3.2-1.1,4.8-1.4c0.4-0.1,0.8,0,1.1,0.2
		c2.8,1.7,5.7,2.1,8.9,1.4c0.4-0.1,0.5,0,0.6,0.3c0.2,0.7,0.2,1.4-0.2,2.1c-0.1,0.2-0.2,0.4-0.4,0.7c0.6,0,1.3-0.5,1.6-1.1
		c0.4-0.8,0.5-1.7,0.3-2.6c-0.1-0.6,0.2-0.9,0.5-1.3c0.2-0.2,0.3,0,0.4,0.1c0.8,0.9,1,1.9,0.7,3.1c-0.2,0.6-0.3,1.3-0.4,1.9
		c0.8-1,1.8-1.9,2-3.2c0.3-1.9-0.4-3.5-1.6-4.9c-0.2-0.2-0.4-0.4-0.4-0.7c0-0.1,0-0.3,0.1-0.3c0.1-0.1,0.2,0,0.3,0.1
		c0.8,0.7,1.4,1.5,1.7,2.5c0.2,0.5,0.3,1,0.5,1.5c0.1,0,0.1,0,0.1-0.1c0.1-1.3,0.2-2.6-0.2-3.8c-0.7-2.4-2.3-3.9-4.8-4.1
		c-0.1,0-0.3,0-0.4,0c-1.8-0.7-3.4,0-5,0.7c-0.5,0.2-1,0.6-1.5,0.9c-1.4,0.9-3.1,1-4.7,1.2c-1.8,0.2-3.6,0.5-5.4,0.7
		c-0.7,0.1-1.5,0.1-2.2,0.1c-0.5,0-0.7-0.2-0.8-0.6c-0.1-0.5-0.1-0.9,0-1.3c0.3-1.4,1-2.6,1.8-3.7c0.6-1,1.2-2,1.5-3.2
		c0.4-1.7,0.2-3.4-0.5-5c-1-2.2-2.4-4.1-4.4-5.6c-2.6-1.9-5.4-3.4-8.7-3.7c0-0.1,0-0.1,0-0.1c1.1-1.4,2.3-2.8,3.8-3.9
		c1.4-1,2.8-2,4.1-3.1c0.6-0.5,1.4-0.7,2.1-1c0.2-0.1,0.4,0,0.6,0.1c5.4,2.7,11,4.8,16.4,7.3c1,0.5,1.8,1.3,2.6,2
		c0.8,0.7,1.6,1.5,2.4,2.3c0.9,0.8,1.9,1.4,3.1,1.5c0.4,0,0.5,0.2,0.5,0.6c0,1.1-0.2,2.2-1.2,3c-0.5,0.4-0.9,0.8-1.3,1.3
		c2.7-0.5,4-1.5,4.4-4.4c0-0.3,0-0.6,0.4-0.7c0.7-0.2,0.8-0.2,0.9,0.5c0.2,1.1,0,2.2-0.6,3.2c-0.3,0.4-0.5,0.9-0.7,1.4
		c1.3-0.6,2.5-1.3,3.1-2.7c0.6-1.4,0.6-2.7,0.2-4.2c0.4,0.1,0.4,0.3,0.5,0.5c0.6,1.2,0.6,2.5,0.6,3.9c0,1.7-0.9,3-1.6,4.4
		c-0.8,1.7-1.8,3.3-2.4,5.1c-0.7,2-0.9,4.1,0.1,6.1c0.8,1.6,2,2.8,3.5,3.7c2.8,1.7,5.9,2.8,9.1,3.5c4.7,1.1,9.5,1.8,14.2,2.4
		c6.5,0.8,13,1.4,19.4,2.4c3.1,0.5,6.2,1.1,9.2,2.1c0.9,0.3,1.8,0.7,2.6,1.1c1.1,0.6,2,1.3,2.5,2.4c0.3,0.5,0.7,1,1.3,1
		c0.7,0,1-0.4,1.3-1c0.6-1.3,1.7-2.1,3-2.7c2.6-1.2,5.4-1.8,8.2-2.4c4.8-0.9,9.6-1.5,14.5-2c6.8-0.8,13.7-1.5,20.5-3
		c3.3-0.7,6.6-1.6,9.6-3.2c1.3-0.7,2.6-1.5,3.6-2.7c2.1-2.3,2.5-5,1.2-7.8c-1.2-2.6-2.4-5.2-3.6-7.7c-1.3-2.7-2.5-5.4-3.6-8.1
		c-0.2-0.5-0.2-0.8,0.1-1.3c0.5-1.1,1.4-1.7,2.4-2.2c0.2-0.1,0.4-0.1,0.5,0.1c0.1,0.1,0.2,0.2,0.3,0.3c0.7,0.7,0.7,0.7,0,1.4
		c-1.3,1.2-1.5,3.1-0.4,4.4c0.1,0.1,0.1,0.2,0.3,0.2c0.1,0,0.1-0.2,0.1-0.3c0,0,0-0.1,0-0.1c0-1.9,0.3-2.4,2.1-3.1
		c0.3-0.1,0.5-0.1,0.8,0.1c1.5,1,3.1,1.4,4.9,1.1c0.5-0.1,0.6,0.2,0.6,0.6c0,1.1-0.5,2-1.2,2.9c-0.3,0.4-0.6,0.8-0.9,1.2
		c0.2,0.2,0.4,0,0.5,0c1.3-0.5,2.2-1.5,3-2.6c1.4-1.9,3.3-3.2,5.3-4.3c0.5-0.3,1-0.6,1.5-0.9c0.5-0.3,1.1-0.4,1.8-0.5
		c2.3-0.1,4.5-0.7,6.7-1.2c0.1,0,0.2,0,0.2-0.2c-0.3-0.3-0.8-0.1-1.1-0.3c0.7-0.2,1.3-0.4,1.9-0.6c0.4-0.1,0.7-0.3,1.1-0.4
		c0.2-0.1,0.4-0.1,0.4-0.3c0-0.2-0.3-0.2-0.4-0.3c-0.1,0-0.3,0-0.4-0.2c0.9-0.3,1.8-0.5,2.7-0.8c1.5-0.3,2.9-0.7,4.4-1
		c0.7-0.2,0.9,0,1,0.7c0.5,2.4,0.5,4.8,0.2,7.2c-0.1,0.5-0.3,1-0.5,1.6c0.7-0.1,1.1-0.5,2.5-2.5c0.1,1.3,0.2,2.4,0.3,3.5
		c0.1,0,0.1,0,0.2,0c0.5-1,0.7-2.1,0.8-3.2c0.2,1,0.4,2.1,0.3,3.1c0,0.4-0.2,0.6-0.7,0.6c-3.2,0-6,1.1-8.8,2.6
		c-1.3,0.7-2.3,1.8-3.1,3c-0.5,0.7-1,1.5-1.4,2.3c0.7-0.3,1-0.9,1.7-1.3c-0.2,1.2-0.4,2.3-0.5,3.5c0.6-0.7,0.9-1.4,1.5-2.1
		c0,3.4,1.5,6.3,2.4,9.4c0.2,0.5,0.2,1.1,0.4,1.7c0.1,0.6-0.1,0.9-0.6,1.2c-1,0.6-2.1,0.4-3.2,0.4c-0.8,0-1.6-0.3-2.3-0.7
		c-2.5-1.4-5-2.6-7.9-3c-3.2-0.5-6.1,1.2-7.1,4.2c-0.1,0.3-0.3,0.5-0.5,0.8c-1.2,1.3-1.3,2.8-0.8,4.4c0.3-0.1,0.3-0.4,0.3-0.5
		c0.2-0.8,0.4-1.5,0.8-2.2c0.2-0.3,0.3-0.3,0.5,0c0.4,0.4,0.5,0.7,0.1,1.2c-1.1,1.7-0.8,3.6,1.1,4.8c0.1-0.5-0.1-1-0.2-1.4
		c-0.2-0.8,0-1.5,0.3-2.2c0.1-0.3,0.3-0.3,0.6-0.1c0.3,0.3,0.7,0.5,0.8,1c0.1,0.7,0.6,1.1,1.2,1.5c0.1,0,0.2,0.1,0.3,0
		c0.1-0.1,0-0.2,0-0.3c-0.1-1-0.1-1,0.9-1.1c0.5,0,0.9-0.1,1.3-0.3c1.4-0.8,2.8-0.7,4.3-0.6c0.5,0,1.1,0.1,1.6,0.1
		c2.9,0,5.9,0.4,8.8,0.6c0.5,0,1.1,0.1,1.6,0.1c1.9,0.2,3.7,0.6,5.5,1.2c0.1,0,0.3,0.2,0.4,0c0.2-0.2-0.1-0.4-0.1-0.7
		c0.6,0.1,1,0.5,1.4,1c0.1,0.1,0.2,0.4,0.4,0.3c0.2-0.1,0.2-0.3,0.2-0.5c0-0.2,0-0.4,0-0.8c0.7,0.6,0.8,1.3,1.1,2.1
		c0.2-0.2,0.3-0.5,0.3-0.8c0.1-1.5-0.1-3-0.7-4.4c-0.4-1-0.9-2-1.3-3c-0.2-0.5-0.4-1-0.5-1.6c-0.3-1.1,0-2.1,0.9-2.9
		c1-0.9,2.3-1.3,3.6-1.5c1.4-0.3,2.6,0.1,3.8,0.7c0.5,0.2,1.1,0.2,1.4,0.6c0.3,0.4,0,1,0,1.5c-0.3,3.3,0.3,6.4,2.1,9.2
		c0.9,1.4,2,2.7,3.4,3.7c1.3,0.9,2.7,1.2,4.2,0.9c-0.9-0.5-2.1-0.5-2.9-1.4c0.8,0.1,1.5,0.4,2.3,0.4c0-0.3-0.3-0.3-0.4-0.6
		c4.3,0.1,7.8-1.9,11.3-4.3c-0.2,1.1-0.4,1.9-0.6,2.8c-0.5,1.8-1,3.7-1.7,5.5c-0.4,1.1-1,2.2-1.9,3.1c-0.7,0.8-1.6,1.5-2.7,1.7
		c-0.2,0-0.3,0.1-0.5,0.2c-1.4,0.5-1.8,1.5-1.3,2.9c0.2,0.5,0.2,0.8,0,1.3c-0.6,1.4-0.2,3.2,0.9,4.2c0.1-0.3,0-0.6-0.1-0.9
		c-0.2-0.8-0.1-1.6,0.2-2.4c0.1-0.3,0.2-0.4,0.6-0.2c0.5,0.4,0.9,0.7,0.9,1.5c0.1,1.2,0.6,2.2,1.9,2.6c-0.4-0.6-0.4-1.2-0.4-1.9
		c0.1-0.8,0.1-0.9,0.9-0.9c0.2,0,0.4,0,0.5,0c0.4,0,0.6,0.1,0.7,0.5c0.2,0.7,0.5,1.2,1,1.7c0.3,0.3,0.6,0.6,1.2,0.6
		c-0.7-0.7-0.9-1.6-1.1-2.4c-0.1-0.5,0-0.8,0.5-1c1.6-0.6,2.7-1.8,3.3-3.4c0.5-1.3,0.9-2.6,0.8-4c0-0.2,0-0.4,0.1-0.5
		c0.7-2.4,1.4-4.8,2-7.1c0.6-2.2,1.8-4,3-5.9c0.4-0.6,0.8-1.1,1.1-1.7c0.1-0.2,0.3-0.3,0.5-0.3h0.9c-0.3-0.4-0.3-0.4-1.7-0.6
		c0.2-0.3,0.7-0.2,1-0.6c-0.5-0.2-0.9,0-1.3,0.1c-1.7,0.3-3.4,0.8-5.1,1.1c-1.8,0.3-3.3-0.5-4.8-1.5c-0.6-0.4-0.7-1.2-0.9-1.9
		c-0.3-1.2-0.3-2.4-0.4-3.5c0-0.5,0.1-0.7,0.6-0.7c2.6-0.2,5.1-0.5,7.6-1c4.7-1,8.3-3.6,11-7.5c3.2-4.6,5-9.7,5.7-15.2
		c0-0.2,0.1-0.3,0.1-0.4v-4C293.3,69.1,292.8,67,292.2,64.9z M129.7,65.5c-1.1,0.7-1.7,1.7-2.2,2.9c-0.6,1.6-1,3.2-1.2,4.9
		c-0.1,0.7-0.2,0.8-1,0.8c-5.5-0.3-10.1-2.5-14.1-6.2c-3.7-3.4-6.1-7.4-6.9-12.4c-0.8-4.8,0.2-9.2,2.3-13.5
		c2.5-4.8,5.7-8.9,9.8-12.4c0.4-0.3,0.5-0.7,0.6-1.1c0.4-2,1.3-3.7,2.6-5.2c0.2-0.3,0.5-0.4,0.9-0.3c3.1,0.4,5.3,2.1,6.9,4.6
		c1.8,2.8,2.6,5.8,2.4,9.2c-0.1,1.6-0.7,3-1.5,4.3c-1.1,1.6-2.1,3.1-3.2,4.7c-0.6,0.8-1.1,1.7-1.4,2.7c-0.1,0.2-0.1,0.5-0.1,0.8
		c0,0.6,0,1.2,0.7,1.5c0.5,0.2,1.4,0,1.8-0.6c0.3-0.3,0.5-0.6,1-0.2c0.3,0.3,0.4,0.6,0.2,1c-0.3,0.4-0.6,0.7-1.1,0.9
		c-0.9,0.3-1.7,0.3-2.6,0c-1-0.4-1.5-1.5-1.2-2.7c0.4-1.2,1.1-2.3,1.7-3.5c0.2-0.4,0.5-0.9,0.7-1.3c1.4-2.2,1-4.3,0-6.5
		c-0.6-1.4-1.6-2.5-2.8-3.4c-0.2-0.2-0.5-0.3-0.8-0.4c-1.5-0.6-2.8-1.5-4.1-2.3c-0.1,0-0.2-0.1-0.2-0.1c-0.3-0.9-0.7-0.3-1,0
		c-3,2.7-4.5,6.2-5.2,10c-0.4,1.8-0.5,3.6-0.5,5.3c-0.1,4.6,1.7,8.3,4.3,11.7c1.4,1.9,3,3.6,4.9,4.9c1.7,1.1,3.5,1.9,5.5,2
		c0.4,0,0.8,0,1.1-0.2c0.7-0.4,1.4-0.8,2.1-1.2c0.9-0.5,1.5-0.1,1.7,0.8C130,65.2,130,65.4,129.7,65.5z M121.1,62.1
		c0.1,0.1,0.2,0.1,0.2,0.2c0.2,0.2,0.3,0.4,0.1,0.6c-0.2,0.2-0.4,0.2-0.6,0c-0.5-0.4-1-0.8-1.4-1.3c-2.1-2-4-4.2-4.9-7
		c-0.5-1.4-0.7-2.9-0.6-4.4c-0.1-2.7,0.5-5.1,1.8-7.3c1-1.7,2.4-2.9,4.5-3c0.8,0,1.1,0.4,0.7,1.1c-0.3,0.5-0.6,0.9-1.3,1.1
		c-1.6,0.3-2.6,1.3-3.3,2.8c-0.7,1.6-1,3.2-1.1,4.9C114.9,55,117.2,58.9,121.1,62.1z M189.2,94.2c-0.1,0.3-0.2,0.6-0.4,0.8
		c-1.5,1.1-2.4,2.6-3.1,4.3c-0.4,1.1-0.8,2.1-1.4,3.1c-1.1,1.9-0.9,1.8-3,1.2c-2.3-0.6-4-2.1-5.4-4c-2.2-3.3-3.5-6.9-4.2-10.8
		c-1.4-7.8,0.4-14.9,4.1-21.8c1.1-2.1,2.4-4.1,3.7-6c0.4-0.6,0.4-0.6-0.3-0.6c-2.3-0.2-4.5-0.8-6.8-1.2c-1.5-0.3-3-0.4-4.5,0
		c-2.6,0.7-4.5,3.1-4.8,5.8c-0.1,0.8-0.1,1.5-0.1,2.3v25c0,0.2,0,0.5,0,0.7c0,0.2,0,0.5,0.3,0.5c0.3,0,0.5-0.1,0.5-0.5
		c0-0.1,0-0.2,0-0.3c0-2.7,0.1-5.5,0.2-8.2c0.3-3.6,0.9-7.1,2.1-10.4c0.4-1,0.8-1.9,1.5-2.7c0.7-0.9,1.6-1.6,2.8-1.8
		c0.2,0,0.5-0.1,0.7-0.1c0.5,0,0.9,0.3,1,0.9c0.1,0.5,0,0.9-0.6,1.1c-0.3,0.1-0.7,0.3-1,0.5c-2.9,1.5-4.4,3.9-4.9,7.1
		c-0.4,2.9-0.6,5.8-0.9,8.6c-0.1,1.6-0.2,3.3-0.4,4.9c0,0.5,0.2,0.6,0.6,0.5c0.6-0.1,0.8,0,0.8,0.6c0,0.6-0.1,1.1-0.7,1.5
		c-1.9,1.1-3.3,2.6-4.6,4.4c-0.9,1.3-1.8,2.6-2.6,3.9c-0.3,0.4-0.5,0.6-1.1,0.5c-1.6-0.3-2-0.8-2-2.4c0-12.1,0-24.2,0-36.4
		c0-2-1-3.5-2.5-4.7c-0.6-0.5-1.3-0.7-2.1-0.5c-1.2,0.2-2.3,0.5-3.4,1c-1,0.4-1.7,1.1-2,2.1c-0.6,1.6-1,3.2-1,5c0,8.2,0,16.5,0,24.7
		c0,0.2,0,0.5,0,0.7c0,0.2,0,0.5,0.3,0.5c0.3,0,0.6,0,0.6-0.4c0-0.1,0-0.2,0-0.4c0-2.3,0-4.7,0.1-7c0.2-3.9,0.8-7.7,2.1-11.3
		c0.5-1.4,1.1-2.6,2.2-3.6c0.8-0.7,1.7-1.1,2.7-1.2c0.6,0,1,0.2,1.1,0.8c0.1,0.7,0,1-0.7,1.2c-3.6,1.5-5.4,4.2-5.8,8
		c-0.4,3.1-0.6,6.1-0.9,9.2c-0.1,1.3-0.2,2.5-0.3,3.8c0,0.6,0,0.7,0.6,0.6c0.6-0.1,0.9,0.1,0.8,0.8c0,0.5-0.1,1-0.6,1.2
		c-2.3,1.6-4.1,3.7-5.8,5.9c-0.5,0.7-1.1,1.3-1.5,2.1c-0.5,0.8-1.2,0.6-1.9,0.4c-0.7-0.2-1.1-0.6-1.1-1.3c0-0.3,0-0.5,0-0.8V64.3
		c0-1.1-0.3-1.3-1.3-0.8c0,0-0.1,0-0.1,0c-0.5,0.2-0.9,0.5-1.3,0c-0.3-0.4-0.1-1.4,0.4-1.7c3.2-2.1,5.3-5,7.5-8
		c0.3-0.4,0.6-0.5,1-0.5c1.4,0.1,1.9,0.6,1.9,2v5.2c0,0.2-0.1,0.4,0.1,0.5c0.2,0.1,0.3-0.2,0.4-0.3c1.2-1.4,2.8-2.1,4.4-2.7
		c1.1-0.4,2.2-0.7,3.4-1c0.4-0.1,0.7-0.3,0.8-0.7c0.7-1.5,1.9-2.6,3.5-3.2c1.2-0.4,2.2-0.1,3.1,0.8c0.9,0.9,1.5,2,1.9,3.1
		c0.4,0.9,0.7,1.9,0.9,2.8c0,0.2,0,0.4,0.2,0.4c0.2,0.1,0.3-0.2,0.4-0.3c1-1.5,2-3,3.4-4.2c2.7-2.5,5.8-3.4,9.4-2.4
		c1.9,0.5,3.7,1.2,5.7,1.5c0.5,0.1,0.9,0,1.3-0.3c0.8-0.5,1.5-1,2.3-1.6c0.2-0.2,0.5-0.4,0.8-0.5c0.2-0.1,0.5-0.2,0.7,0.1
		c0.2,0.3,0.2,0.6,0,0.8c-0.3,0.4-0.7,0.7-1,1.1c-2.4,2.6-4.6,5.3-6.1,8.5c-1.4,3-2.1,6.2-2.3,9.5c-0.2,4-0.1,8,0.7,11.9
		c0.7,3.6,2.2,6.9,5.2,9.2c0.5,0.4,1.1,0.8,1.7,1.1c0.3,0.2,0.6,0.2,0.9,0c0.8-0.4,1.7-0.8,2.5-1.2c0.2-0.1,0.4-0.2,0.6,0
		C189.3,93.7,189.3,93.9,189.2,94.2z M180.9,86.6c0.4,1.5,1.2,2.8,1.8,4.2c0.2,0.4,0.4,0.9,0.5,1.3c-1.4-1.8-2.7-3.6-3.5-5.7
		c-0.6-1.5-0.3-3,0.5-4.4c0.4-0.7,0.9-1.3,1.6-1.9c0.2-0.2,0.5-0.3,0.8-0.1c0.3,0.2,0.2,0.5,0.1,0.7c-0.3,0.8-0.7,1.6-1.2,2.3
		C180.6,84.1,180.5,85.3,180.9,86.6z M200.7,77.9c-1,0.6-1.8,1.4-2.3,2.6c-0.3-0.7-0.6-1.5-0.8-2.2c-0.1-0.2,0-0.4,0.2-0.6
		c0.8-0.6,1.6-0.9,2.5-1c0.2,0,0.5-0.1,0.5,0.3C200.8,77.3,201.2,77.6,200.7,77.9z M230.8,65.9c-3.6,1.6-6.8,4-10.2,5.9
		c-3.4,1.9-6.9,3.7-10.4,5.3c-1,0.5-2.6,0.1-3.4-0.9c-1.9-2.1-4.2-2.5-6.8-1.8c-1.1,0.3-1.9,0.9-2.6,1.7c-0.3,0.3-0.4,0.4-0.6-0.1
		c-1.9-5.6-3.4-11.2-4.2-17c-0.4-2.9-0.7-5.9-0.6-8.8c0.2-5.9,1.5-11.6,4.9-16.6c2.2-3.3,5.2-5.7,8.8-7.2c0.2-0.1,0.4-0.1,0.6-0.2
		c-0.1,0.4,0.2,0.4,0.4,0.4c0.7,0.2,1.5,0.4,2.2,0.6c1.1,0.3,2,0.8,2.8,1.5c0.2,0.2,0.3,0.4,0.3,0.8c-0.1,1.4-0.2,2.8-0.3,4.2
		c0,0.5-0.2,0.8-0.6,1.1c-0.4,0.3-0.9,0.5-1.4,0.7c-1,0.4-2,0.3-2.8-0.5c-0.1-0.1-0.2-0.2-0.5-0.2c0.3,1,0.8,1.8,1.8,2.1
		c1.1,0.4,2.3,0.3,3.3-0.3c0.4-0.2,0.6-0.2,0.9,0.2c0.8,1.4,1.9,2.4,3,3.5c0.5,0.5,0.8,1,1.1,1.7c0.8,2.1,1.8,4.1,3,6.1
		c0.7,1.1,0.9,2.3,0.9,3.6c0,1.5,0,2.9,0.1,4.4c0,0.2,0,0.3,0.2,0.5c0.4-0.8,0.4-1.5,0.7-2.4c0.3,1.4,0.7,2.7,1.3,4v-1.6
		c0,0,0.1,0,0.1,0c0.6,0.9,1.1,1.8,1.8,2.8c0.1-0.7-0.2-1.2-0.1-1.8c0.2,0.1,0.3,0.3,0.4,0.5c1.7,2.8,3.5,5.4,5.9,7.6
		C231,65.6,231.2,65.8,230.8,65.9z"/>
	<path class="st0" d="M121.4,62.9c-0.2,0.2-0.4,0.2-0.6,0c-0.5-0.4-1-0.8-1.4-1.3c-2.1-2-4-4.2-4.9-7c-0.5-1.4-0.7-2.9-0.6-4.4
		c-0.1-2.7,0.5-5.1,1.8-7.3c1-1.7,2.4-2.9,4.5-3c0.8,0,1.1,0.4,0.7,1.1c-0.3,0.5-0.6,0.9-1.3,1.1c-1.6,0.3-2.6,1.3-3.3,2.8
		c-0.7,1.6-1,3.2-1.1,4.9c-0.3,5.2,2,9.1,5.9,12.3c0.1,0.1,0.2,0.1,0.2,0.2C121.6,62.4,121.6,62.7,121.4,62.9z"/>
	<path class="st0" d="M183.2,92.1c-1.4-1.8-2.7-3.6-3.5-5.7c-0.6-1.5-0.3-3,0.5-4.4c0.4-0.7,0.9-1.3,1.6-1.9
		c0.2-0.2,0.5-0.3,0.8-0.1c0.3,0.2,0.2,0.5,0.1,0.7c-0.3,0.8-0.7,1.6-1.2,2.3c-0.8,1.1-0.9,2.3-0.5,3.5c0.4,1.5,1.2,2.8,1.8,4.2
		C182.9,91.2,183.1,91.6,183.2,92.1z"/>
	<path class="st0" d="M189.2,94.2c-0.1,0.3-0.2,0.6-0.4,0.8c-1.5,1.1-2.4,2.6-3.1,4.3c-0.4,1.1-0.8,2.1-1.4,3.1
		c-1.1,1.9-0.9,1.8-3,1.2c-2.3-0.6-4-2.1-5.4-4c-2.2-3.3-3.5-6.9-4.2-10.8c-1.4-7.8,0.4-14.9,4.1-21.8c1.1-2.1,2.4-4.1,3.7-6
		c0.4-0.6,0.4-0.6-0.3-0.6c-2.3-0.2-4.5-0.8-6.8-1.2c-1.5-0.3-3-0.4-4.5,0c-2.6,0.7-4.5,3.1-4.8,5.8c-0.1,0.8-0.1,1.5-0.1,2.3v25
		c0,0.2,0,0.5,0,0.7c0,0.2,0,0.5,0.3,0.5c0.3,0,0.5-0.1,0.5-0.5c0-0.1,0-0.2,0-0.3c0-2.7,0.1-5.5,0.2-8.2c0.3-3.6,0.9-7.1,2.1-10.4
		c0.4-1,0.8-1.9,1.5-2.7c0.7-0.9,1.6-1.6,2.8-1.8c0.2,0,0.5-0.1,0.7-0.1c0.5,0,0.9,0.3,1,0.9c0.1,0.5,0,0.9-0.6,1.1
		c-0.3,0.1-0.7,0.3-1,0.5c-2.9,1.5-4.4,3.9-4.9,7.1c-0.4,2.9-0.6,5.8-0.9,8.6c-0.1,1.6-0.2,3.3-0.4,4.9c0,0.5,0.2,0.6,0.6,0.5
		c0.6-0.1,0.8,0,0.8,0.6c0,0.6-0.1,1.1-0.7,1.5c-1.9,1.1-3.3,2.6-4.6,4.4c-0.9,1.3-1.8,2.6-2.6,3.9c-0.3,0.4-0.5,0.6-1.1,0.5
		c-1.6-0.3-2-0.8-2-2.4c0-12.1,0-24.2,0-36.4c0-2-1-3.5-2.5-4.7c-0.6-0.5-1.3-0.7-2.1-0.5c-1.2,0.2-2.3,0.5-3.4,1
		c-1,0.4-1.7,1.1-2,2.1c-0.6,1.6-1,3.2-1,5c0,8.2,0,16.5,0,24.7c0,0.2,0,0.5,0,0.7c0,0.2,0,0.5,0.3,0.5c0.3,0,0.6,0,0.6-0.4
		c0-0.1,0-0.2,0-0.4c0-2.3,0-4.7,0.1-7c0.2-3.9,0.8-7.7,2.1-11.3c0.5-1.4,1.1-2.6,2.2-3.6c0.8-0.7,1.7-1.1,2.7-1.2
		c0.6,0,1,0.2,1.1,0.8c0.1,0.7,0,1-0.7,1.2c-3.6,1.5-5.4,4.2-5.8,8c-0.4,3.1-0.6,6.1-0.9,9.2c-0.1,1.3-0.2,2.5-0.3,3.8
		c0,0.6,0,0.7,0.6,0.6c0.6-0.1,0.9,0.1,0.8,0.8c0,0.5-0.1,1-0.6,1.2c-2.3,1.6-4.1,3.7-5.8,5.9c-0.5,0.7-1.1,1.3-1.5,2.1
		c-0.5,0.8-1.2,0.6-1.9,0.4c-0.7-0.2-1.1-0.6-1.1-1.3c0-0.3,0-0.5,0-0.8V64.3c0-1.1-0.3-1.3-1.3-0.8c0,0-0.1,0-0.1,0
		c-0.5,0.2-0.9,0.5-1.3,0c-0.3-0.4-0.1-1.4,0.4-1.7c3.2-2.1,5.3-5,7.5-8c0.3-0.4,0.6-0.5,1-0.5c1.4,0.1,1.9,0.6,1.9,2v5.2
		c0,0.2-0.1,0.4,0.1,0.5c0.2,0.1,0.3-0.2,0.4-0.3c1.2-1.4,2.8-2.1,4.4-2.7c1.1-0.4,2.2-0.7,3.4-1c0.4-0.1,0.7-0.3,0.8-0.7
		c0.7-1.5,1.9-2.6,3.5-3.2c1.2-0.4,2.2-0.1,3.1,0.8c0.9,0.9,1.5,2,1.9,3.1c0.4,0.9,0.7,1.9,0.9,2.8c0,0.2,0,0.4,0.2,0.4
		c0.2,0.1,0.3-0.2,0.4-0.3c1-1.5,2-3,3.4-4.2c2.7-2.5,5.8-3.4,9.4-2.4c1.9,0.5,3.7,1.2,5.7,1.5c0.5,0.1,0.9,0,1.3-0.3
		c0.8-0.5,1.5-1,2.3-1.6c0.2-0.2,0.5-0.4,0.8-0.5c0.2-0.1,0.5-0.2,0.7,0.1c0.2,0.3,0.2,0.6,0,0.8c-0.3,0.4-0.7,0.7-1,1.1
		c-2.4,2.6-4.6,5.3-6.1,8.5c-1.4,3-2.1,6.2-2.3,9.5c-0.2,4-0.1,8,0.7,11.9c0.7,3.6,2.2,6.9,5.2,9.2c0.5,0.4,1.1,0.8,1.7,1.1
		c0.3,0.2,0.6,0.2,0.9,0c0.8-0.4,1.7-0.8,2.5-1.2c0.2-0.1,0.4-0.2,0.6,0C189.3,93.7,189.3,93.9,189.2,94.2z"/>
	<path class="st0" d="M130,64.9c0.1,0.3,0,0.4-0.2,0.6c-1.1,0.7-1.7,1.7-2.2,2.9c-0.6,1.6-1,3.2-1.2,4.9c-0.1,0.7-0.2,0.8-1,0.8
		c-5.5-0.3-10.1-2.5-14.1-6.2c-3.7-3.4-6.1-7.4-6.9-12.4c-0.8-4.8,0.2-9.2,2.3-13.5c2.5-4.8,5.7-8.9,9.8-12.4
		c0.4-0.3,0.5-0.7,0.6-1.1c0.4-2,1.3-3.7,2.6-5.2c0.2-0.3,0.5-0.4,0.9-0.3c3.1,0.4,5.3,2.1,6.9,4.6c1.8,2.8,2.6,5.8,2.4,9.2
		c-0.1,1.6-0.7,3-1.5,4.3c-1.1,1.6-2.1,3.1-3.2,4.7c-0.6,0.8-1.1,1.7-1.4,2.7c-0.1,0.2-0.1,0.5-0.1,0.8c0,0.6,0,1.2,0.7,1.5
		c0.5,0.2,1.4,0,1.8-0.6c0.3-0.3,0.5-0.6,1-0.2c0.3,0.3,0.4,0.6,0.2,1c-0.3,0.4-0.6,0.7-1.1,0.9c-0.9,0.3-1.7,0.3-2.6,0
		c-1-0.4-1.5-1.5-1.2-2.7c0.4-1.2,1.1-2.3,1.7-3.5c0.2-0.4,0.5-0.9,0.7-1.3c1.4-2.2,1-4.3,0-6.5c-0.6-1.4-1.6-2.5-2.8-3.4
		c-0.2-0.2-0.5-0.3-0.8-0.4c-1.5-0.6-2.8-1.5-4.1-2.3c-0.1,0-0.2-0.1-0.2-0.1c-0.3-0.9-0.7-0.3-1,0c-3,2.7-4.5,6.2-5.2,10
		c-0.4,1.8-0.5,3.6-0.5,5.3c-0.1,4.6,1.7,8.3,4.3,11.7c1.4,1.9,3,3.6,4.9,4.9c1.7,1.1,3.5,1.9,5.5,2c0.4,0,0.8,0,1.1-0.2
		c0.7-0.4,1.4-0.8,2.1-1.2C129.2,63.6,129.8,64,130,64.9z"/>
	<path class="st0" d="M151.7,142.5c-0.8-0.2-1.6-0.4-2.4-0.8c-0.2-0.1-0.5-0.3-0.7-0.5c-0.2-0.2-0.6-0.4-0.5-0.7
		c0.1-0.3,0.5-0.2,0.8-0.2c1.3-0.1,2.5-0.3,3.8-0.3c-1.3,0-2.7,0-4,0c-0.2,0-0.5,0.1-0.5-0.1c-0.1-0.2,0.2-0.4,0.3-0.5
		c1.3-1,2.8-1.6,4.4-2c2.4-0.5,4.7-0.1,6.6,1.5c0.5,0.4,0.5,0.5,0,0.9c-1.7,1.3-3.5,2.2-5.5,2.6
		C153.1,142.5,152.4,142.5,151.7,142.5z"/>
	<path class="st0" d="M137.3,142.5c-2.1-0.4-3.9-1.4-5.5-2.6c-0.6-0.4-0.6-0.5,0-0.9c2.5-2,5.3-2.1,8.2-1.1c1,0.4,2,0.8,2.8,1.5
		c0.2,0.1,0.4,0.3,0.3,0.5c-0.1,0.3-0.4,0.1-0.6,0.1c-1.3,0-2.6,0-3.9-0.1c1.3,0.1,2.6,0.3,4,0.4c0.2,0,0.5,0,0.6,0.2
		c0.1,0.2-0.2,0.4-0.3,0.6c-0.7,0.6-1.5,1-2.4,1.3c-0.3,0.1-0.6,0.1-0.8,0.2C138.8,142.5,138,142.5,137.3,142.5z"/>
	<path class="st0" d="M142.6,134.2c0.4,1.3,0.8,2.7,1.2,4c0.1,0.2,0.3,0.6,0,0.7c-0.2,0.2-0.5-0.1-0.8-0.3c-2-1.7-3.5-3.8-4.1-6.5
		c-0.4-1.6-0.3-3.2,0.2-4.8c0.1-0.3,0.2-0.6,0.6-0.4c2.3,1.3,4.3,2.9,5.3,5.4c0.2,0.4,0.3,0.9,0.4,1.4c0.7-3.2,2.9-5.1,5.5-6.7
		c0.6-0.3,0.7-0.3,0.9,0.3c0.8,2.6,0.4,5.1-0.9,7.5c-0.7,1.4-1.7,2.6-2.9,3.6c-0.2,0.2-0.6,0.5-0.8,0.4c-0.3-0.2,0-0.6,0.1-0.8
		c0.4-1.3,0.8-2.6,1.1-3.9c-0.6,1.3-1.1,2.7-1.5,4c-0.1,0.2-0.1,0.6-0.3,0.6c-0.3,0-0.4-0.3-0.5-0.5c-0.3-0.5-0.4-1.1-0.6-1.8
		c-0.2,0.7-0.3,1.4-0.7,2c-0.1,0.2-0.2,0.4-0.4,0.4c-0.2,0-0.2-0.3-0.3-0.5C143.7,137,143.2,135.6,142.6,134.2z"/>
	<path class="st0" d="M157.5,129c-0.5,1.1-1.1,2.2-1.6,3.3c-0.1,0.2-0.1,0.4-0.4,0.4c-0.2,0-0.3-0.3-0.4-0.4
		c-0.5-1.3-0.5-2.5-0.2-3.8c0.4-1.8,1.5-3.1,2.9-4.2c1-0.9,2.2-1.5,3.4-2.1c0.6-0.3,0.7-0.2,0.9,0.5c0.3,1.9-0.1,3.7-1,5.4
		c-1,1.9-2.4,3.4-4.1,4.6c-0.2,0.2-0.6,0.4-0.8,0.3c-0.2-0.2,0.1-0.5,0.2-0.8C156.7,131.1,157.1,130.1,157.5,129
		C157.5,129,157.5,129,157.5,129z"/>
	<path class="st0" d="M133.6,129c0.5,1,0.9,2.1,1.4,3.1c0.1,0.2,0.3,0.5,0.1,0.7c-0.2,0.2-0.5-0.1-0.7-0.2c-2.5-1.8-4.5-4.1-5.1-7.2
		c-0.2-1-0.3-1.9-0.1-2.9c0.1-0.6,0.2-0.7,0.8-0.4c2.4,1.1,4.6,2.6,5.8,5.1c0.7,1.4,0.8,2.8,0.5,4.4c0,0.2-0.1,0.3-0.1,0.5
		c-0.1,0.3-0.2,0.7-0.5,0.7c-0.3,0-0.3-0.4-0.4-0.6C134.7,131.1,134.2,130,133.6,129C133.7,129,133.6,129,133.6,129z"/>
	<path class="st0" d="M124.7,124.8c0.4,0.9,1,1.7,1.4,2.7c-0.4,0-0.7-0.1-0.9-0.2c-2.3-1.4-4.4-3.2-5.6-5.7c-0.5-1-0.8-2.1-0.7-3.3
		c0-0.4,0.1-0.6,0.6-0.5c2.3,0.8,4.4,1.8,6,3.8c1.2,1.4,1.8,3,1.5,4.9c0,0.1-0.1,0.3-0.1,0.4c-0.1,0.2-0.1,0.4-0.3,0.4
		c-0.2,0-0.3-0.2-0.4-0.3C125.6,126.3,125.1,125.5,124.7,124.8z"/>
	<path class="st0" d="M165.1,127.5c0.5-1,1-1.8,1.5-2.7c-0.5,0.7-0.9,1.3-1.4,2c-0.1,0.2-0.2,0.6-0.5,0.5c-0.3-0.1-0.3-0.4-0.4-0.7
		c-0.3-1.3,0-2.5,0.6-3.6c0.6-1.2,1.5-2.2,2.6-3c1.3-0.9,2.7-1.6,4.1-2.1c0.6-0.2,0.7-0.1,0.7,0.5c0.1,1.6-0.4,3-1.3,4.3
		c-1.2,2-3,3.4-4.9,4.6C165.8,127.4,165.5,127.5,165.1,127.5z"/>
	<path class="st0" d="M160.8,133.9c-1,0-2.3,0-3.6,0c-0.2,0-0.4,0.1-0.5-0.1c-0.1-0.2,0.1-0.4,0.3-0.5c1.6-1,3.3-1.6,5.1-1.8
		c1.7-0.2,3.4,0.1,4.9,1.1c0.2,0.2,0.5,0.3,0.7,0.5c0.5,0.5,0.5,0.6-0.1,0.9c-1.8,1.2-3.7,2.1-5.9,2.3c-1.7,0.1-3.2-0.2-4.6-1.2
		c-0.1-0.1-0.2-0.1-0.2-0.2c-0.2-0.2-0.4-0.4-0.3-0.6c0.1-0.3,0.4-0.2,0.6-0.2C158.5,134,159.8,133.9,160.8,133.9z"/>
	<path class="st0" d="M130,133.8c1.4,0.1,2.7,0.2,4.1,0.3c0.2,0,0.5-0.1,0.6,0.2c0.1,0.3-0.1,0.5-0.3,0.6c-0.9,0.8-1.9,1.2-3.1,1.4
		c-2,0.3-3.9-0.3-5.7-1.1c-0.7-0.3-1.4-0.8-2.1-1.2c-0.5-0.3-0.4-0.5-0.1-0.9c1.5-1.3,3.3-1.8,5.3-1.7c1.8,0.1,3.4,0.7,4.9,1.5
		c0.1,0,0.2,0.1,0.3,0.2c0.2,0.2,0.6,0.3,0.5,0.6c-0.1,0.3-0.5,0.1-0.8,0.1C132.5,133.9,131.3,133.8,130,133.8z"/>
	<path class="st0" d="M114.5,120.4c0.6,0.8,1.3,1.6,2,2.5c-0.3,0.2-0.6,0-0.8-0.1c-2.5-1.1-4.8-2.6-6.5-4.8c-0.6-0.8-1-1.7-1.2-2.7
		c-0.1-0.6,0-0.7,0.6-0.6c1.8,0.4,3.6,0.9,5.2,2c1.7,1.1,3.1,2.5,3.4,4.7c0,0.1,0,0.2,0,0.2c0,0.4,0.1,0.8-0.3,1
		c-0.3,0.2-0.5-0.3-0.7-0.5C115.6,121.6,115.1,121,114.5,120.4z"/>
	<path class="st0" d="M174.7,122.9c0.7-0.9,1.4-1.7,2.1-2.5c-0.8,0.6-1.4,1.4-2,2.1c-0.1,0.1-0.2,0.3-0.4,0.3
		c-0.2-0.1-0.2-0.3-0.3-0.5c-0.1-0.8,0.1-1.5,0.3-2.2c0.6-1.4,1.6-2.4,2.8-3.2c1.7-1.1,3.5-1.7,5.5-2.1c0.5-0.1,0.6,0.2,0.5,0.6
		c-0.2,1.2-0.8,2.3-1.6,3.2c-1.6,1.9-3.7,3.2-6,4.3C175.3,122.9,175.1,123,174.7,122.9z"/>
	<path class="st0" d="M122,128.6c1,0,2,0,3.1,0c0.2,0,0.6-0.1,0.7,0.2c0.1,0.3-0.1,0.5-0.3,0.7c-1.4,1.1-3,1.5-4.7,1.3
		c-2.1-0.2-4-1-5.8-2c-0.5-0.2-0.4-0.5-0.1-0.8c1.2-1.2,2.7-1.6,4.3-1.7c2.1-0.1,4,0.5,5.8,1.3c0.2,0.1,0.7,0.3,0.6,0.5
		c-0.1,0.3-0.5,0.1-0.8,0.1c-0.9,0-1.8,0-2.7,0C122,128.5,122,128.6,122,128.6z"/>
	<path class="st0" d="M169.1,128.4c-1,0-2,0-3,0c-0.2,0-0.4,0.1-0.4-0.1c-0.1-0.2,0.2-0.3,0.3-0.4c1-0.6,2.1-1,3.3-1.2
		c1.7-0.4,3.5-0.5,5.2,0.2c0.8,0.3,1.5,0.7,2,1.3c0.2,0.2,0.3,0.4,0,0.6c-2.2,1.2-4.5,2.1-7,2.1c-1.2,0-2.3-0.4-3.3-1.1
		c-0.2-0.1-0.3-0.2-0.5-0.4c-0.1-0.1-0.3-0.3-0.2-0.5c0.1-0.2,0.3-0.2,0.5-0.2c1.1,0,2.1,0,3.2,0
		C169.2,128.6,169.2,128.5,169.1,128.4z"/>
	<path class="st0" d="M106.4,119.5c-0.3,0.2-0.6,0.1-0.8,0c-2.4-0.7-4.6-1.6-6.6-3c-0.9-0.6-1.6-1.3-2.1-2.3
		c-0.3-0.6-0.2-0.7,0.4-0.7c2.5,0.1,4.8,0.5,7,1.7c0.9,0.5,1.7,1.2,2.2,2.1c0.2,0.3,0.4,0.7,0.5,1.1c0.1,0.4,0.2,0.8-0.1,1
		c-0.3,0.2-0.5-0.2-0.8-0.4c-0.2-0.1-0.4-0.3-0.6-0.4C105.7,118.9,106.1,119,106.4,119.5z"/>
	<path class="st0" d="M185.8,118.5c-0.3,0.2-0.7,0.5-1,0.7c-0.4,0.3-0.5,0.1-0.6-0.3c0-0.4,0.1-0.7,0.2-1.1c0.6-1.4,1.8-2.4,3.1-3
		c2-1,4.2-1.3,6.5-1.4c0.6,0,0.6,0.1,0.4,0.7c-0.3,0.8-0.9,1.4-1.5,1.9c-2.2,1.8-4.8,2.8-7.4,3.6c-0.2,0.1-0.4,0.2-0.5,0
		c-0.1-0.2,0.2-0.3,0.3-0.5C185.4,118.9,185.6,118.7,185.8,118.5C185.8,118.5,185.8,118.5,185.8,118.5z"/>
	<path class="st0" d="M112.9,124.1c1,0,1.9,0,2.9,0c0.2,0,0.4-0.1,0.4,0.1c0.1,0.2,0,0.4-0.1,0.5c-0.6,0.7-1.4,1-2.2,1.3
		c-1.4,0.4-2.9,0.3-4.4,0c-1.3-0.3-2.5-0.6-3.8-1.1c-0.6-0.2-0.6-0.4-0.2-0.8c1-1.1,2.3-1.5,3.7-1.7c2-0.2,4,0.1,5.9,0.8
		c0.3,0.1,0.7,0.2,0.7,0.5c-0.1,0.4-0.5,0.2-0.8,0.2C114.4,124,113.7,124,112.9,124.1C112.9,124,112.9,124.1,112.9,124.1z"/>
	<path class="st0" d="M178.3,124c-0.9,0-1.8-0.1-2.7-0.1c-0.2,0-0.4,0-0.4-0.2c-0.1-0.2,0.2-0.3,0.3-0.3c1.3-0.6,2.7-0.9,4.1-1
		c1.5-0.1,3-0.1,4.4,0.6c0.7,0.3,1.2,0.7,1.7,1.3c0.2,0.2,0.2,0.4-0.1,0.6c-2.5,0.9-5,1.8-7.7,1.3c-1-0.2-1.8-0.5-2.6-1.2
		c-0.2-0.2-0.4-0.4-0.3-0.7c0.1-0.3,0.4-0.2,0.7-0.2C176.5,124.1,177.4,124.1,178.3,124C178.3,124.1,178.3,124,178.3,124z"/>
	<path class="st0" d="M89.8,114c1.5,0,3,0.2,4.4,0.9c0.8,0.4,1.5,0.9,1.9,1.6c0.5,0.8,0.3,1.3-0.7,1.3c-0.9,0-1.9-0.1-2.8-0.3
		c-1.7-0.2-3.4-0.5-5-1.1c-0.8-0.3-1.6-0.7-2.2-1.2c-0.1-0.1-0.3-0.2-0.3-0.4c0-0.2,0.3-0.2,0.5-0.2C86.9,114.2,88.3,114,89.8,114z"
		/>
	<path class="st0" d="M201.5,114c1.4,0,2.8,0.2,4.1,0.5c0.2,0,0.5,0,0.5,0.3c0.1,0.3-0.2,0.4-0.4,0.5c-0.6,0.5-1.3,0.9-2,1.1
		c-2.5,0.8-5.2,1.2-7.8,1.4c-0.4,0-0.8-0.1-1-0.4c-0.2-0.3,0.1-0.7,0.3-1c0.7-1.1,1.9-1.6,3.1-2C199.3,114.1,200.4,114,201.5,114z"
		/>
	<path class="st0" d="M186.8,120.6c-0.6-0.1-1.1-0.2-1.8-0.3c0.2-0.3,0.5-0.4,0.8-0.4c2.1-0.5,4.2-0.6,6.4-0.1
		c1.1,0.3,2.1,0.8,2.9,1.7c0.4,0.6,0.4,0.7-0.3,0.8c-1.8,0.3-3.7,0.6-5.5,0.5c-1.3-0.1-2.6-0.3-3.6-1.1c-0.4-0.3-0.9-0.6-0.7-1.1
		c0.1-0.3,0.7-0.1,1.1-0.1C186.2,120.6,186.5,120.6,186.8,120.6C186.7,120.6,186.7,120.6,186.8,120.6z"/>
	<path class="st0" d="M106.2,120.2c-0.6,0.3-1.2,0.2-1.9,0.4c0.7-0.1,1.2-0.1,1.8-0.2c0.5,0,0.5,0.2,0.3,0.6c-0.3,0.5-0.7,0.8-1.2,1
		c-0.8,0.4-1.8,0.6-2.7,0.7c-2.1,0.2-4.1-0.2-6.1-0.5c-0.5-0.1-0.5-0.3-0.2-0.6c0.6-0.8,1.4-1.3,2.3-1.6c2.1-0.7,4.2-0.7,6.4-0.3
		C105.3,119.8,105.8,119.9,106.2,120.2z"/>
	<path class="st0" d="M215.1,119.8c-2.7-0.2-5.1-0.7-7.6-1.1c-0.4-0.1-0.8-0.2-1.3-0.3c-0.3-0.1-0.6-0.3-0.7-0.6
		c-0.1-0.3,0.2-0.5,0.5-0.7c0.7-0.4,1.4-0.7,2.2-0.7c2.3-0.1,4.4,0.5,6.3,1.5c0.6,0.3,1.2,0.6,1.8,1c0.2,0.1,0.4,0.2,0.4,0.4
		c0,0.2-0.3,0.2-0.5,0.3C215.8,119.7,215.4,119.8,215.1,119.8z"/>
	<path class="st0" d="M76.2,119.8c-0.5,0-1-0.1-1.5-0.2c-0.3-0.1-0.5-0.3-0.1-0.5c2.6-1.6,5.4-2.9,8.6-2.6c0.7,0.1,1.4,0.3,2,0.7
		c0.3,0.2,0.6,0.4,0.5,0.7c-0.1,0.3-0.4,0.5-0.7,0.6c-1,0.2-2,0.4-3.1,0.6C80,119.4,78.2,119.7,76.2,119.8z"/>
	<path class="st0" d="M86.7,121.8c-0.3,0-0.5-0.1-0.3-0.4c0.2-0.6,0.6-1,1.1-1.3c1.5-1.1,3.3-1.6,5.2-1.8c0.9-0.1,1.8-0.2,2.7,0
		c0.2,0,0.2,0,0.3,0.3c0,0,0,0,0,0.1c0.1,0,0.1,0,0.2,0c0.6-0.1,0.4,0.3,0.3,0.6c-0.2,0.4-0.6,0.7-1,0.9c-0.9,0.6-1.9,0.9-3,1.1
		C90.4,121.5,88.5,121.6,86.7,121.8z"/>
	<path class="st0" d="M196.9,118.1c2.1,0.1,4.2,0.3,6.1,1.4c0.7,0.4,1.4,0.9,1.8,1.7c0.2,0.4,0.2,0.6-0.3,0.6
		c-2.1-0.2-4.2-0.3-6.2-0.8c-0.9-0.2-1.7-0.6-2.4-1.1c-0.3-0.2-0.6-0.5-0.8-0.8c-0.1-0.2-0.2-0.5,0-0.5c0.4-0.1,0.7-0.6,1.2-0.5
		C196.4,118.1,196.6,118.1,196.9,118.1z"/>
	<path class="st0" d="M77.1,123.8c0.1-0.3,0.2-0.5,0.4-0.8c0.6-0.9,1.4-1.6,2.3-2.2c1.5-1,3.2-1.7,5-2.1c0,0,0.1,0,0.1,0
		c0.4-0.1,0.8,0,1,0.2c0.2,0.3-0.1,0.7-0.3,0.9c-0.7,0.8-1.5,1.4-2.4,1.8c-1.8,0.8-3.7,1.6-5.5,2.4C77.4,124.2,77,124.4,77.1,123.8z
		"/>
	<path class="st0" d="M206.1,118.7c0.3,0.1,0.6,0.1,0.9,0.2c2.2,0.6,4.3,1.5,6,3.2c0.5,0.5,0.9,1,1.1,1.6c0.1,0.1,0.1,0.3,0,0.5
		c-0.1,0.1-0.2,0-0.3,0c-2.4-1.1-4.9-1.8-7.1-3.4c-0.4-0.3-0.8-0.6-1.1-1c-0.2-0.2-0.4-0.5-0.2-0.8
		C205.5,118.7,205.8,118.7,206.1,118.7z"/>
</g>
</svg>
