<?xml version="1.0" encoding="iso-8859-1"?>
<!-- Generator: Adobe Illustrator 21.1.0, SVG Export Plug-In . SVG Version: 6.00 Build 0)  -->
<svg version="1.1" id="Layer_3" xmlns="http://www.w3.org/2000/svg" xmlns:xlink="http://www.w3.org/1999/xlink" x="0px" y="0px"
	 viewBox="0 0 300 142.502" style="enable-background:new 0 0 300 142.502;" xml:space="preserve">
<g>
	<path style="fill:white;" d="M143.69,0c0.572,0,1.145,0,1.717,0c2.451,3.162,5.41,5.776,8.675,8.061
		c5.903,4.13,12.413,6.611,19.626,7.081c3.912,0.255,7.789-0.085,11.609-1.017c2.405-0.587,4.744-1.372,7.05-2.264
		c0.88-0.34,1.159-0.196,1.487,0.682c0.107,0.287,0.194,0.581,0.298,0.869c1.783,4.969,5.084,8.44,10.091,10.227
		c0.711,0.254,1.424,0.503,2.134,0.762c0.32,0.116,0.589,0.289,0.628,0.674c0.039,0.388-0.106,0.675-0.453,0.859
		c-0.108,0.057-0.21,0.125-0.315,0.188c-0.194,0.063-0.394,0.111-0.58,0.192c-3.634,1.576-6.621,3.954-8.838,7.247
		c-3.374,5.011-4.648,10.657-4.876,16.591c-0.114,2.965,0.166,5.914,0.572,8.852c0.806,5.83,2.313,11.483,4.236,17.035
		c0.171,0.492,0.299,0.399,0.567,0.083c0.703-0.829,1.563-1.453,2.627-1.718c2.606-0.65,4.94-0.263,6.822,1.835
		c0.87,0.97,2.438,1.349,3.454,0.891c3.56-1.606,7.033-3.381,10.443-5.284c3.425-1.911,6.586-4.276,10.173-5.906
		c0.373-0.169,0.171-0.327,0.001-0.487c-2.362-2.217-4.188-4.847-5.862-7.596c-0.1-0.165-0.155-0.378-0.41-0.476
		c-0.024,0.572,0.218,1.107,0.127,1.804c-0.642-0.995-1.208-1.873-1.775-2.752c-0.038,0.008-0.076,0.017-0.114,0.025
		c0,0.543,0,1.086,0,1.629c-0.589-1.248-0.972-2.532-1.312-3.96c-0.28,0.848-0.288,1.653-0.667,2.401
		c-0.178-0.204-0.148-0.371-0.163-0.527c-0.138-1.467-0.113-2.938-0.132-4.409c-0.016-1.274-0.214-2.469-0.904-3.617
		c-1.156-1.925-2.171-3.938-2.951-6.053c-0.241-0.653-0.604-1.185-1.097-1.667c-1.109-1.086-2.264-2.142-3.048-3.504
		c-0.252-0.438-0.447-0.43-0.852-0.209c-1.054,0.575-2.174,0.65-3.319,0.268c-1.039-0.347-1.481-1.169-1.787-2.154
		c0.259-0.016,0.367,0.127,0.473,0.238c0.8,0.841,1.736,0.89,2.76,0.506c0.482-0.181,0.925-0.426,1.36-0.698
		c0.4-0.25,0.569-0.579,0.588-1.061c0.055-1.407,0.145-2.813,0.258-4.217c0.028-0.352-0.072-0.577-0.318-0.799
		c-0.824-0.741-1.775-1.226-2.848-1.491c-0.753-0.187-1.501-0.391-2.247-0.603c-0.193-0.055-0.493-0.058-0.368-0.414
		c0.241-0.04,0.485-0.069,0.723-0.122c2.315-0.519,4.42-0.14,6.243,1.453c0.061,0.054,0.122,0.114,0.195,0.148
		c0.189,0.089,0.425,0.165,0.577,0.019c0.182-0.173-0.043-0.335-0.141-0.468c-0.738-1.011-1.527-1.973-2.64-2.606
		c-0.117-0.067-0.299-0.122-0.272-0.293c0.03-0.185,0.229-0.141,0.355-0.162c0.675-0.114,1.33,0.022,1.874,0.401
		c1.081,0.753,2.278,1.412,2.755,2.774c0.032,0.091,0.102,0.183,0.18,0.239c0.118,0.085,0.276,0.133,0.4,0.041
		c0.124-0.091,0.032-0.232-0.011-0.336c-0.359-0.867-0.658-1.761-1.145-2.573c-0.105-0.174-0.407-0.342-0.218-0.564
		c0.148-0.173,0.427-0.067,0.637,0.015c0.208,0.081,0.423,0.165,0.603,0.293c1.277,0.908,1.975,2.145,2.072,3.714
		c0.024,0.386-0.052,0.779,0.071,1.157c0.257,0.789,0.302,1.598,0.269,2.422c-0.134,3.288,0.576,6.262,2.747,8.898
		c2.609,3.168,4.927,6.577,8.011,9.336c2.14,1.915,4.593,3.326,7.22,4.446c0.372,0.159,0.858,0.49,1.204,0.187
		c0.357-0.313,0.134-0.846,0.045-1.278c-0.412-2.004-1.598-3.63-2.771-5.208c-0.884-1.189-0.76-2.274-0.27-3.464
		c0.116-0.281,0.264-0.743,0.608-0.652c0.305,0.08,0.149,0.54,0.151,0.829c0.006,1.279,0.01,1.294,1.267,1.548
		c0.1,0.02,0.205,0.025,0.3,0.059c0.345,0.123,0.526-0.024,0.664-0.337c0.159-0.358,0.286-0.76,0.752-0.951
		c0.053,0.416-0.057,0.766-0.117,1.119c-0.053,0.311,0.074,0.461,0.389,0.476c0.865,0.041,2.252-0.918,2.542-1.764
		c0.388-1.129-0.076-2.318-1.217-3.054c-0.925-0.596-1.987-0.836-3.031-1.126c-0.446-0.124-0.601,0.071-0.671,0.45
		c-0.055,0.294-0.057,0.604-0.264,0.9c-0.28-0.366-0.301-0.775-0.317-1.17c-0.014-0.351-0.166-0.527-0.5-0.576
		c-0.666-0.099-1.33-0.208-1.997-0.299c-0.324-0.044-0.497,0.114-0.523,0.445c-0.037,0.475-0.086,0.95-0.146,1.594
		c-0.306-0.585-0.453-1.043-0.539-1.518c-0.079-0.441-0.229-0.785-0.68-1c-0.485-0.231-0.679-0.68-0.419-1.183
		c0.726-1.404,1.081-2.952,1.73-4.384c0.418-0.922,0.835-1.135,1.847-0.973c0.93,0.148,1.831,0.417,2.741,0.649
		c0.98,0.25,1.088,0.189,1.507-0.721c0.265-0.575,0.532-1.149,0.79-1.728c0.308-0.69,0.802-1.062,1.589-0.975
		c0.942,0.105,1.797-0.149,2.658-0.535c1.558-0.699,3.222-1.223,4.918-1.126c1.573,0.091,2.712-0.393,3.635-1.59
		c0.111-0.144,0.257-0.262,0.388-0.392c1.231-1.226,2.489-2.422,3.821-3.54c0.783-0.657,1.59-0.4,1.856,0.596
		c0.098,0.365,0.059,0.727,0.026,1.095c-0.179,1.98-0.518,3.925-1.236,5.79c-0.101,0.262-0.065,0.453,0.173,0.638
		c0.48,0.373,0.888,0.984,1.418,1.109c0.545,0.129,1.113-0.411,1.668-0.662c2.175-0.984,4.411-1.838,6.461-3.089
		c0.782-0.477,1.704,0.091,1.756,1.015c0.023,0.414-0.042,0.811-0.188,1.201c-0.338,0.903-0.786,1.752-1.263,2.586
		c-1.69,2.958-3.143,6.071-5.576,8.544c-0.156,0.159-0.177,0.347-0.151,0.566c0.315,2.662,0.038,5.3-0.387,7.924
		c-0.51,3.151-0.848,6.308-0.788,9.507c0.06,3.168,0.342,6.318,0.644,9.467c0.164,1.712,0.531,3.36,1.276,4.948
		c1.277,2.722,2.279,5.563,2.933,8.5c0.317,1.423,0.999,2.579,1.969,3.591c1.519,1.584,3.409,2.382,5.601,2.323
		c1.489-0.04,2.884-0.527,4.206-1.213c0.186-0.096,0.362-0.276,0.705-0.159c-1.347,1.285-2.809,2.281-4.524,2.904
		c2.524,0.354,4.782-0.24,6.823-1.754c-0.473,0.897-1.039,1.655-1.777,2.295c0.49-0.116,0.939-0.26,1.353-0.472
		c2.518-1.287,4.506-3.154,5.987-5.559c1.218-1.976,1.787-4.193,2.383-6.406c1.591-5.9,0.807-11.471-2.109-16.815
		c-1.524-2.794-3.284-5.409-5.307-7.858c-1.769-2.142-3.615-4.229-5.013-6.649c-1.386-2.399-2.4-4.92-1.832-7.754
		c0.407-2.032,1.05-3.981,2.77-5.388c1.324-1.083,2.763-2.096,3.324-3.841c0.216,0.064,0.21,0.226,0.242,0.359
		c0.137,0.564-0.176,1.064-0.288,1.715c1.915-0.699,3.914-1.057,4.919-3.101c0.101,1.644-0.9,2.599-1.957,3.524
		c1.449-0.335,2.899-0.671,4.502-1.042c-0.535,0.781-1.12,1.248-1.757,1.647c-1.425,0.894-2.977,1.531-4.517,2.191
		c-1.11,0.476-2.183,1.008-3.15,1.752c-1.266,0.974-1.568,2.274-1.388,3.758c0.228,1.877,1.186,3.43,2.32,4.862
		c2.272,2.868,4.688,5.619,7.185,8.291c2.939,3.144,4.976,6.762,6.086,10.911c0.559,2.091,1.069,4.193,1.347,6.343
		c0,1.349,0,2.698,0,4.047c-0.026,0.139-0.059,0.277-0.076,0.418c-0.689,5.532-2.568,10.621-5.716,15.226
		c-2.689,3.934-6.345,6.48-11.014,7.518c-2.516,0.559-5.071,0.857-7.641,1.015c-0.512,0.031-0.699,0.218-0.65,0.71
		c0.117,1.177,0.139,2.367,0.408,3.524c0.161,0.694,0.267,1.482,0.894,1.901c1.437,0.961,2.948,1.764,4.791,1.462
		c1.715-0.281,3.384-0.774,5.092-1.082c0.395-0.071,0.797-0.254,1.258-0.1c-0.251,0.353-0.7,0.293-0.955,0.589
		c1.435,0.17,1.435,0.17,1.732,0.605c-0.306,0-0.585-0.003-0.865,0.001c-0.242,0.003-0.439,0.083-0.533,0.331
		c-0.242,0.64-0.68,1.161-1.048,1.724c-1.22,1.868-2.423,3.744-3.053,5.914c-0.689,2.373-1.368,4.749-2.044,7.126
		c-0.05,0.174-0.074,0.364-0.066,0.545c0.063,1.401-0.336,2.701-0.826,3.99c-0.607,1.597-1.644,2.767-3.26,3.366
		c-0.491,0.182-0.578,0.47-0.503,0.945c0.14,0.885,0.401,1.711,1.059,2.445c-0.573,0.011-0.873-0.27-1.148-0.571
		c-0.46-0.503-0.839-1.063-0.999-1.736c-0.091-0.386-0.295-0.56-0.69-0.527c-0.183,0.015-0.368,0.008-0.552,0.005
		c-0.833-0.014-0.872,0.031-0.929,0.871c-0.045,0.668,0.018,1.313,0.392,1.921c-1.275-0.474-1.8-1.473-1.862-2.657
		c-0.038-0.731-0.37-1.095-0.892-1.459c-0.336-0.235-0.456-0.133-0.556,0.198c-0.24,0.793-0.36,1.591-0.186,2.417
		c0.059,0.283,0.15,0.571,0.061,0.898c-1.099-1.006-1.515-2.853-0.892-4.197c0.222-0.479,0.209-0.841,0.022-1.315
		c-0.543-1.375-0.095-2.345,1.269-2.897c0.151-0.061,0.303-0.127,0.462-0.164c1.102-0.258,1.938-0.911,2.684-1.731
		c0.84-0.922,1.435-1.98,1.887-3.131c0.697-1.772,1.214-3.599,1.668-5.444c0.212-0.863,0.373-1.738,0.597-2.798
		c-3.511,2.464-7.024,4.428-11.312,4.325c0.071,0.24,0.395,0.236,0.343,0.558c-0.75,0.009-1.459-0.259-2.268-0.397
		c0.809,0.909,1.958,0.934,2.9,1.384c-1.565,0.312-2.974,0.046-4.249-0.896c-1.369-1.011-2.467-2.267-3.373-3.689
		c-1.795-2.816-2.342-5.921-2.085-9.21c0.039-0.497,0.381-1.058,0.053-1.478c-0.321-0.412-0.96-0.405-1.436-0.636
		c-1.196-0.58-2.405-0.933-3.776-0.654c-1.321,0.269-2.582,0.586-3.612,1.527c-0.892,0.815-1.166,1.801-0.882,2.944
		c0.132,0.533,0.327,1.053,0.537,1.562c0.42,1.02,0.873,2.026,1.308,3.04c0.602,1.403,0.761,2.874,0.656,4.382
		c-0.018,0.253-0.042,0.511-0.281,0.768c-0.287-0.734-0.41-1.483-1.064-2.084c0,0.349,0.008,0.572-0.003,0.794
		c-0.008,0.178,0.034,0.423-0.172,0.483c-0.216,0.063-0.279-0.192-0.384-0.329c-0.358-0.467-0.742-0.889-1.379-1.01
		c-0.036,0.274,0.269,0.459,0.106,0.671c-0.096,0.124-0.265,0.003-0.397-0.04c-1.787-0.578-3.593-1.073-5.475-1.222
		c-0.529-0.042-1.059-0.069-1.589-0.102c-2.932-0.182-5.852-0.533-8.793-0.582c-0.53-0.009-1.059-0.079-1.589-0.093
		c-1.464-0.037-2.944-0.218-4.297,0.605c-0.38,0.232-0.843,0.309-1.294,0.346c-1.079,0.087-1.08,0.084-0.941,1.141
		c0.013,0.099,0.074,0.208-0.021,0.285c-0.092,0.075-0.193,0.022-0.281-0.031c-0.577-0.346-1.109-0.777-1.225-1.457
		c-0.089-0.515-0.397-0.768-0.751-1.045c-0.264-0.206-0.433-0.152-0.573,0.138c-0.338,0.702-0.465,1.427-0.318,2.202
		c0.089,0.469,0.272,0.929,0.211,1.444c-1.887-1.217-2.182-3.125-1.104-4.828c0.329-0.521,0.26-0.799-0.129-1.18
		c-0.236-0.231-0.344-0.22-0.49,0.05c-0.372,0.688-0.614,1.423-0.818,2.175c-0.052,0.191-0.023,0.45-0.339,0.557
		c-0.474-1.646-0.337-3.135,0.818-4.439c0.203-0.23,0.398-0.447,0.502-0.754c1.028-3.035,3.887-4.702,7.091-4.223
		c2.845,0.425,5.387,1.618,7.864,2.981c0.731,0.402,1.456,0.715,2.294,0.743c1.1,0.037,2.207,0.175,3.235-0.4
		c0.496-0.278,0.698-0.653,0.554-1.216c-0.143-0.554-0.246-1.118-0.398-1.669c-0.844-3.075-2.352-5.975-2.357-9.409
		c-0.596,0.695-0.847,1.424-1.494,2.094c0.066-1.271,0.309-2.351,0.491-3.534c-0.652,0.436-1.018,1.059-1.691,1.334
		c0.417-0.786,0.896-1.526,1.374-2.267c0.799-1.238,1.78-2.3,3.084-3.01c2.735-1.489,5.576-2.651,8.766-2.616
		c0.44,0.005,0.617-0.174,0.673-0.595c0.141-1.064-0.081-2.089-0.268-3.127c-0.104,1.129-0.284,2.225-0.786,3.232
		c-0.059-0.007-0.117-0.013-0.176-0.02c-0.088-1.123-0.177-2.246-0.277-3.522c-1.354,1.991-1.769,2.397-2.488,2.462
		c0.184-0.529,0.421-1.031,0.48-1.581c0.255-2.409,0.254-4.81-0.204-7.199c-0.135-0.702-0.3-0.835-0.995-0.683
		c-1.456,0.319-2.909,0.652-4.359,1c-0.907,0.218-1.819,0.427-2.708,0.758c0.106,0.169,0.261,0.159,0.388,0.209
		c0.164,0.064,0.419,0.057,0.441,0.264c0.024,0.228-0.236,0.245-0.395,0.31c-0.359,0.148-0.72,0.293-1.089,0.41
		c-0.619,0.196-1.246,0.368-1.894,0.557c0.377,0.256,0.825,0.054,1.134,0.323c-0.031,0.166-0.143,0.182-0.234,0.204
		c-2.202,0.534-4.398,1.109-6.679,1.19c-0.622,0.022-1.213,0.104-1.754,0.45c-0.499,0.319-1.023,0.597-1.537,0.893
		c-2.013,1.161-3.933,2.465-5.345,4.335c-0.836,1.108-1.757,2.032-3.033,2.58c-0.147,0.063-0.292,0.23-0.528,0.057
		c0.314-0.4,0.634-0.769,0.911-1.168c0.609-0.879,1.151-1.795,1.16-2.912c0.003-0.392-0.116-0.69-0.62-0.592
		c-1.786,0.347-3.403-0.087-4.885-1.096c-0.263-0.179-0.502-0.195-0.799-0.068c-1.762,0.749-2.088,1.226-2.092,3.132
		c0,0.041,0.005,0.082-0.001,0.122c-0.016,0.115,0.031,0.27-0.117,0.315c-0.145,0.044-0.205-0.101-0.28-0.192
		c-1.094-1.328-0.919-3.243,0.4-4.405c0.783-0.689,0.783-0.689,0.045-1.426c-0.087-0.087-0.176-0.171-0.26-0.261
		c-0.163-0.176-0.345-0.191-0.553-0.084c-0.994,0.513-1.905,1.106-2.414,2.171c-0.21,0.438-0.244,0.819-0.052,1.279
		c1.14,2.736,2.352,5.438,3.62,8.116c1.216,2.566,2.466,5.118,3.616,7.714c1.257,2.836,0.819,5.464-1.23,7.805
		c-0.997,1.139-2.219,1.988-3.56,2.668c-3.049,1.547-6.302,2.497-9.631,3.182c-6.766,1.391-13.627,2.146-20.48,2.942
		c-4.846,0.563-9.688,1.152-14.489,2.034c-2.819,0.518-5.598,1.173-8.223,2.364c-1.278,0.58-2.371,1.386-3.005,2.678
		c-0.273,0.557-0.613,0.99-1.268,0.988c-0.644-0.002-1.04-0.408-1.309-0.958c-0.542-1.111-1.426-1.876-2.499-2.443
		c-0.833-0.44-1.696-0.808-2.591-1.103c-3.017-0.995-6.131-1.566-9.256-2.067c-6.451-1.034-12.959-1.629-19.437-2.452
		c-4.781-0.607-9.551-1.287-14.248-2.382c-3.194-0.744-6.299-1.761-9.118-3.493c-1.489-0.915-2.719-2.097-3.51-3.679
		c-0.998-1.998-0.839-4.032-0.106-6.06c0.641-1.774,1.634-3.384,2.412-5.094c0.642-1.412,1.576-2.706,1.576-4.38
		c0-1.34,0.016-2.656-0.587-3.893c-0.091-0.187-0.134-0.427-0.533-0.512c0.442,1.482,0.41,2.875-0.2,4.23
		c-0.626,1.389-1.809,2.117-3.133,2.707c0.194-0.482,0.441-0.918,0.699-1.348c0.589-0.983,0.824-2.038,0.638-3.173
		c-0.122-0.74-0.206-0.761-0.917-0.548c-0.405,0.121-0.375,0.404-0.416,0.712c-0.381,2.895-1.725,3.888-4.413,4.342
		c0.376-0.568,0.844-0.96,1.307-1.332c0.963-0.773,1.161-1.822,1.19-2.957c0.01-0.381-0.17-0.57-0.532-0.611
		c-1.207-0.137-2.214-0.707-3.097-1.495c-0.823-0.734-1.58-1.542-2.404-2.274c-0.821-0.729-1.566-1.567-2.595-2.027
		c-5.465-2.439-11.055-4.6-16.413-7.28c-0.181-0.091-0.373-0.221-0.58-0.131c-0.709,0.308-1.48,0.493-2.099,0.985
		c-1.345,1.069-2.731,2.079-4.141,3.06c-1.511,1.05-2.663,2.461-3.796,3.885c-0.014,0.018,0.015,0.071,0.029,0.129
		c3.27,0.328,6.084,1.761,8.682,3.684c1.964,1.454,3.425,3.314,4.386,5.568c0.686,1.611,0.872,3.254,0.462,4.971
		c-0.276,1.155-0.833,2.168-1.452,3.158c-0.738,1.18-1.444,2.374-1.792,3.744c-0.114,0.448-0.108,0.882-0.018,1.332
		c0.085,0.425,0.3,0.642,0.748,0.643c0.736,0.002,1.471,0.018,2.203-0.074c1.802-0.227,3.605-0.441,5.404-0.693
		c1.612-0.225,3.263-0.316,4.708-1.206c0.504-0.311,0.994-0.658,1.53-0.902c1.585-0.724,3.181-1.458,4.987-0.738
		c0.128,0.051,0.282,0.037,0.424,0.053c2.481,0.293,4.145,1.729,4.836,4.144c0.362,1.266,0.246,2.548,0.187,3.83
		c-0.001,0.016-0.063,0.03-0.142,0.065c-0.175-0.499-0.35-0.995-0.525-1.491c-0.347-0.987-0.939-1.808-1.704-2.51
		c-0.086-0.079-0.179-0.205-0.313-0.128c-0.124,0.071-0.077,0.218-0.079,0.336c-0.003,0.3,0.221,0.469,0.389,0.671
		c1.175,1.407,1.859,2.976,1.56,4.853c-0.215,1.346-1.14,2.264-1.972,3.249c0.06-0.67,0.207-1.299,0.366-1.925
		c0.294-1.152,0.049-2.181-0.696-3.096c-0.108-0.133-0.257-0.367-0.428-0.123c-0.269,0.384-0.626,0.708-0.508,1.305
		c0.176,0.893,0.078,1.793-0.351,2.627c-0.336,0.653-1.008,1.151-1.595,1.152c0.128-0.232,0.238-0.447,0.362-0.654
		c0.4-0.663,0.384-1.358,0.171-2.071c-0.091-0.303-0.244-0.416-0.588-0.335c-3.142,0.741-6.117,0.34-8.885-1.365
		c-0.353-0.218-0.694-0.265-1.105-0.181c-1.646,0.337-3.247,0.814-4.814,1.415c-3.585,1.377-7.173,2.747-10.762,4.112
		c-0.611,0.232-1.24,0.425-1.892,0.502c-1.19,0.14-1.877-0.5-1.848-1.684c0.013-0.527,0.161-1.022,0.435-1.452
		c0.508-0.797,0.721-1.674,0.875-2.587c0.333-1.971,0.798-3.927,0.769-5.942c-0.039-2.716-1.319-4.285-3.973-4.802
		c-2.043-0.398-4.104-0.7-6.154-1.06c-0.337-0.059-0.474,0.061-0.585,0.361c-0.365,0.989-0.454,2.032-0.589,3.059
		c-0.321,2.443-1.105,4.679-2.681,6.61c-1.697,2.08-3.855,2.918-6.515,2.53c-1.853-0.271-3.517-1.034-5.162-1.866
		c-1.113-0.563-2.234-1.101-3.459-1.392c-1.367-0.326-1.976-0.001-2.707,1.433c-0.245,0.48-0.263,1.022-0.167,1.56
		c0.126,0.71,0.361,1.384,0.674,2.029c1.623,3.345,3.211,6.707,4.696,10.116c0.599,1.375,0.354,2.651-0.784,3.358
		c-0.455,0.283-0.681,0.638-0.871,1.11c-0.647,1.612-1.693,2.842-3.455,3.284c-0.647,0.162-1.297,0.126-1.958-0.137
		c0.08-0.103,0.098-0.149,0.13-0.162c0.132-0.054,0.264-0.113,0.402-0.144c1.397-0.311,2.283-1.208,2.834-2.48
		c0.081-0.187,0.321-0.452,0.074-0.593c-0.209-0.12-0.518-0.014-0.719,0.197c-0.056,0.059-0.101,0.128-0.149,0.194
		c-0.707,0.984-1.693,1.504-2.858,1.742c-0.725,0.148-1.462,0.142-2.194,0.194c-0.291,0.021-0.779,0.143-0.843-0.117
		c-0.085-0.344,0.422-0.391,0.677-0.554c0.464-0.297,0.958-0.548,1.423-0.844c0.361-0.23,0.701-0.494,1.041-0.756
		c0.147-0.114,0.325-0.324,0.05-0.42c-0.509-0.179-0.979-0.554-1.605-0.152c-1.402,0.9-2.885,0.686-4.359,0.153
		c-0.112-0.04-0.272-0.078-0.276-0.209c-0.006-0.187,0.182-0.189,0.315-0.223c0.336-0.086,0.674-0.164,1.01-0.253
		c0.495-0.13,0.975-0.292,1.403-0.592c0.381-0.267,0.443-0.485,0.09-0.87c-1.16-1.26-1.212-2.487-0.222-3.877
		c0.118-0.166,0.227-0.354,0.383-0.477c0.855-0.676,0.925-1.51,0.55-2.46c-0.135-0.341-0.219-0.702-0.327-1.053
		c-0.537-1.736-1.17-3.442-1.569-5.22c-0.499-2.219-0.681-4.44-0.067-6.667c0.211-0.763,0.511-1.536,1.289-1.848
		c1.018-0.408,2.021-0.88,3.119-1.072c1.275-0.223,2.56-0.226,3.847-0.247c2.185-0.036,3.746-1.192,4.337-3.205
		c0.097-0.331,0.116-0.684,0.198-1.02c0.21-0.857,0.017-1.552-0.585-2.243c-1.338-1.536-2.763-3.028-3.473-5.007
		c-0.113-0.316-0.322-0.241-0.542-0.123c-0.432,0.231-0.872,0.449-1.298,0.691c-0.429,0.244-0.6,0.095-0.6-0.358
		c0-1.001,0.003-2.003,0.001-3.004c-0.001-0.329,0.146-0.584,0.362-0.817c0.611-0.66,1.213-1.328,1.827-1.985
		c0.219-0.234,0.351-0.481,0.343-0.817c-0.06-2.441,0.589-4.733,1.542-6.944c1.224-2.838,2.779-5.506,4.3-8.192
		c2.228-3.936,4.313-7.939,5.381-12.38c0.315-1.312,0.586-2.618,0.317-3.993c-0.345-1.762-0.604-3.541-0.892-5.314
		c-0.063-0.391-0.264-0.663-0.586-0.886c-1.296-0.896-2.546-1.854-3.703-2.923c-5.548-5.128-9.993-11.104-13.558-17.745
		c-0.482-0.897-0.866-1.855-0.881-2.908c-0.022-1.533,1.017-2.389,2.526-2.064c0.96,0.207,1.891,0.516,2.812,0.855
		c4.268,1.572,8.163,3.837,11.904,6.392c0.169,0.115,0.313,0.303,0.611,0.301c-0.111-0.238-0.194-0.422-0.281-0.605
		c-1.746-3.639-3.149-7.405-4.135-11.32c-0.226-0.896-0.346-1.814,0.051-2.707c0.355-0.798,1.016-1.054,1.745-0.651
		c1.688,0.934,3.262,2.027,4.634,3.395c2.316,2.31,4.23,4.925,5.878,7.741c0.148,0.254,0.252,0.526,0.643,0.324
		c1.931-0.996,3.988-1.108,6.094-0.831c0.891,0.117,1.774,0.278,2.634,0.554c2.058,0.659,3.448,2.053,4.347,3.971
		c0.222,0.474,0.532,0.714,1.055,0.795c0.928,0.143,1.834,0.009,2.741-0.127c1.292-0.194,2.573-0.44,3.891-0.419
		c2.074,0.033,3.594,0.884,4.504,2.801c0.521,1.098,0.881,2.233,1.168,3.409c0.641,2.625-0.114,4.666-2.415,6.112
		c-0.194,0.122-0.346,0.276-0.441,0.493c-1.229,2.805-3.498,3.91-6.43,3.881c-0.566-0.006-0.578,0.214-0.419,0.625
		c0.181,0.467,0.506,0.779,0.979,0.947c0.497,0.176,1.015,0.182,1.515,0.099c0.754-0.125,1.45-0.452,2.055-0.909
		c0.327-0.247,0.077-0.702,0.171-1.051c0.009-0.033,0.048-0.058,0.074-0.087c0.659,0.655,0.659,0.654,1.559,0.22
		c0.147-0.071,0.292-0.157,0.447-0.198c0.394-0.105,0.482-0.368,0.476-0.741c-0.006-0.346-0.192-0.703,0.001-1.074
		c0.225,0.09,0.294,0.268,0.397,0.413c0.281,0.4,0.454,0.886,0.831,1.207c0.591,0.503,0.716,1.139,0.388,1.765
		c-0.725,1.386-1.405,2.818-2.578,3.909c-1.203,1.119-2.556,2.034-3.977,2.852c-0.601,0.346-1.212,0.69-1.645,1.258
		c-0.122,0.16-0.297,0.335-0.208,0.545c0.101,0.237,0.356,0.158,0.548,0.144c1.956-0.145,3.83-0.596,5.573-1.521
		c3.09-1.639,5.443-4.091,7.465-6.877c2.213-3.048,4.018-6.353,5.908-9.603c0.228-0.392,0.328-0.834,0.443-1.269
		c0.428-1.618,0.747-3.265,1.279-4.857c0.257-0.77,0.658-1.445,1.193-2.051c0.575-0.651,1.271-1.007,2.16-0.946
		c0.407,0.028,0.808,0.02,1.212-0.102c2.409-0.728,4.398,0.396,6.408,1.491c-1.344,0.298-2.745-0.021-4.068,0.418
		c1.656,0.029,2.998,0.765,4.179,1.834c1.354,1.226,2.411,2.718,3.591,4.1c0.028,0.033,0.009,0.106,0.017,0.234
		c-0.944-0.444-1.843-0.865-2.74-1.288c-1.166-0.55-2.363-1.02-3.604-1.372c-0.197-0.056-0.463-0.235-0.583,0.069
		c-0.109,0.275,0.013,0.52,0.307,0.646c0.056,0.024,0.108,0.058,0.163,0.085c2.378,1.179,2.961,3.675,2.76,5.683
		c-0.004,0.042-0.076,0.076-0.121,0.12c-0.25-0.172-0.293-0.451-0.413-0.679c-0.608-1.149-1.402-2.097-2.636-2.627
		c-0.529-0.228-0.874-0.169-1.26,0.309c-0.932,1.156-2.122,1.962-3.579,2.344c-0.375,0.098-0.739,0.234-1.108,0.355
		c-0.602,0.198-1.001,0.584-1.21,1.198c-0.19,0.56-0.455,1.094-0.669,1.646c-1.958,5.057-4.135,10.004-7.09,14.581
		c-2.147,3.327-4.429,6.53-7.497,9.089c-0.385,0.321-0.175,0.484,0.087,0.7c1.83,1.508,3.663,3.011,5.562,4.431
		c3.437,2.569,6.769,5.278,10.321,7.695c0.76,0.517,1.565,0.744,2.479,0.715c0.979-0.031,1.885-0.326,2.792-0.645
		c1.619-0.569,3.041-0.19,4.212,1.007c0.922,0.942,1.666,2.046,2.615,2.976c0.45,0.441,0.662,1.068,0.871,1.673
		c0.271,0.784,0.256,1.595,0.263,2.57c0.155-0.325,0.245-0.5,0.323-0.68c2.216-5.08,4.173-10.256,5.654-15.601
		c1.967-7.098,3.339-14.277,2.757-21.701c-0.297-3.794-1.049-7.485-2.657-10.956c-1.827-3.944-4.445-7.228-8.201-9.516
		c-1.153-0.702-2.388-1.252-3.604-1.836c-0.33-0.158-0.499-0.373-0.491-0.759c0.008-0.387,0.241-0.531,0.544-0.644
		c0.766-0.285,1.528-0.581,2.296-0.86c3.115-1.132,5.724-2.952,7.683-5.653c1.138-1.569,1.951-3.302,2.562-5.136
		c0.417-1.252,0.615-1.334,1.877-0.881c1,0.359,1.999,0.722,3.009,1.05c6.664,2.167,13.441,2.868,20.358,1.459
		c7.528-1.533,14.009-5.088,19.591-10.319C141.262,2.871,142.598,1.543,143.69,0z M135.994,83.188c0,6.193,0,12.385,0,18.578
		c0,0.266-0.009,0.533,0.014,0.797c0.056,0.656,0.438,1.098,1.151,1.255c0.664,0.146,1.343,0.391,1.847-0.413
		c0.455-0.725,0.999-1.396,1.533-2.067c1.732-2.178,3.494-4.328,5.844-5.895c0.433-0.289,0.512-0.775,0.566-1.242
		c0.075-0.654-0.157-0.858-0.795-0.751c-0.601,0.1-0.666,0.024-0.611-0.599c0.111-1.26,0.207-2.522,0.307-3.783
		c0.243-3.072,0.492-6.142,0.86-9.203c0.455-3.784,2.256-6.545,5.851-8.023c0.658-0.27,0.793-0.553,0.656-1.237
		c-0.104-0.524-0.507-0.817-1.143-0.779c-1.04,0.063-1.929,0.487-2.69,1.19c-1.082,0.999-1.734,2.268-2.214,3.627
		c-1.296,3.67-1.843,7.481-2.091,11.346c-0.149,2.326-0.135,4.655-0.134,6.984c0,0.122-0.004,0.245-0.015,0.367
		c-0.034,0.36-0.314,0.392-0.581,0.413c-0.347,0.026-0.316-0.245-0.327-0.464c-0.011-0.224-0.005-0.45-0.005-0.674
		c0-8.236,0.025-16.473-0.02-24.709c-0.01-1.743,0.432-3.345,0.999-4.946c0.357-1.008,1.075-1.656,2.03-2.093
		c1.089-0.499,2.246-0.73,3.409-0.964c0.803-0.162,1.531,0.004,2.134,0.5c1.471,1.211,2.465,2.653,2.46,4.697
		c-0.029,12.119-0.014,24.239-0.014,36.358c0,1.635,0.44,2.127,2.034,2.434c0.516,0.099,0.79-0.066,1.058-0.474
		c0.853-1.298,1.709-2.595,2.615-3.856c1.249-1.739,2.711-3.274,4.56-4.395c0.57-0.345,0.7-0.874,0.707-1.466
		c0.007-0.576-0.179-0.737-0.75-0.615c-0.473,0.101-0.678,0.016-0.63-0.526c0.145-1.647,0.243-3.297,0.381-4.945
		c0.243-2.887,0.433-5.779,0.865-8.649c0.475-3.155,1.945-5.602,4.864-7.062c0.329-0.164,0.654-0.344,0.998-0.468
		c0.551-0.198,0.701-0.599,0.603-1.115c-0.099-0.52-0.436-0.828-0.971-0.862c-0.241-0.015-0.49,0.015-0.729,0.06
		c-1.162,0.218-2.056,0.866-2.786,1.767c-0.663,0.818-1.151,1.738-1.511,2.722c-1.229,3.363-1.832,6.858-2.099,10.413
		c-0.205,2.73-0.297,5.465-0.25,8.204c0.002,0.102-0.005,0.204-0.007,0.306c-0.008,0.359-0.266,0.424-0.544,0.45
		c-0.342,0.032-0.335-0.231-0.35-0.451c-0.017-0.244-0.01-0.49-0.01-0.735c0-8.318,0-16.636-0.001-24.954
		c0-0.756,0.018-1.509,0.082-2.264c0.224-2.659,2.207-5.067,4.776-5.794c1.516-0.429,3.031-0.318,4.548-0.049
		c2.25,0.398,4.465,0.996,6.757,1.152c0.685,0.047,0.704,0.079,0.316,0.639c-1.35,1.951-2.602,3.961-3.734,6.048
		c-3.695,6.816-5.549,13.975-4.12,21.765c0.713,3.883,1.989,7.543,4.234,10.815c1.33,1.938,3.046,3.435,5.372,4.041
		c2.044,0.532,1.851,0.615,2.978-1.25c0.593-0.981,0.994-2.059,1.405-3.127c0.65-1.69,1.558-3.194,3.076-4.256
		c0.274-0.192,0.362-0.479,0.441-0.78c0.064-0.244,0.132-0.49-0.092-0.682c-0.212-0.182-0.437-0.053-0.633,0.037
		c-0.854,0.391-1.707,0.787-2.548,1.206c-0.327,0.163-0.602,0.169-0.916-0.025c-0.574-0.355-1.144-0.714-1.673-1.135
		c-2.986-2.377-4.485-5.594-5.22-9.243c-0.792-3.93-0.914-7.907-0.698-11.888c0.178-3.303,0.847-6.52,2.273-9.538
		c1.51-3.197,3.679-5.925,6.079-8.487c0.335-0.358,0.677-0.71,1.007-1.073c0.242-0.266,0.226-0.561,0.027-0.841
		c-0.201-0.285-0.477-0.199-0.716-0.079c-0.272,0.136-0.525,0.312-0.777,0.484c-0.758,0.519-1.509,1.05-2.269,1.567
		c-0.403,0.274-0.841,0.371-1.339,0.291c-1.944-0.313-3.789-0.994-5.682-1.497c-3.602-0.956-6.743-0.123-9.439,2.419
		c-1.317,1.242-2.336,2.728-3.362,4.207c-0.097,0.14-0.17,0.368-0.403,0.309c-0.192-0.049-0.17-0.267-0.207-0.414
		c-0.246-0.972-0.54-1.927-0.926-2.853c-0.474-1.139-1.036-2.226-1.934-3.098c-0.875-0.85-1.861-1.167-3.079-0.751
		c-1.65,0.564-2.796,1.648-3.534,3.192c-0.184,0.384-0.417,0.598-0.849,0.686c-1.141,0.231-2.261,0.557-3.355,0.96
		c-1.64,0.605-3.222,1.309-4.401,2.677c-0.109,0.127-0.193,0.391-0.407,0.285c-0.176-0.087-0.098-0.333-0.099-0.51
		c-0.005-1.717-0.002-3.433-0.003-5.15c-0.001-1.359-0.548-1.912-1.918-1.977c-0.438-0.021-0.765,0.065-1.046,0.459
		c-2.137,3-4.3,5.978-7.452,8.044c-0.47,0.308-0.681,1.352-0.382,1.731c0.407,0.515,0.885,0.175,1.335,0.025
		c0.039-0.013,0.075-0.033,0.112-0.049c1.06-0.457,1.328-0.29,1.328,0.836C135.994,70.599,135.993,76.894,135.994,83.188z
		 M110.286,46.82c-0.024-1.694,0.159-3.522,0.511-5.329c0.753-3.863,2.307-7.314,5.256-10.028c0.314-0.289,0.664-0.864,0.992,0.006
		c0.025,0.065,0.12,0.108,0.187,0.153c1.314,0.868,2.645,1.707,4.1,2.325c0.282,0.12,0.565,0.231,0.808,0.429
		c1.157,0.942,2.128,2.045,2.751,3.405c0.985,2.149,1.399,4.318,0.007,6.483c-0.265,0.412-0.496,0.846-0.737,1.273
		c-0.632,1.121-1.307,2.225-1.676,3.469c-0.337,1.137,0.151,2.29,1.15,2.662c0.846,0.315,1.728,0.304,2.582-0.001
		c0.451-0.161,0.799-0.48,1.074-0.88c0.263-0.383,0.171-0.686-0.165-0.957c-0.415-0.335-0.674-0.133-0.959,0.219
		c-0.449,0.553-1.299,0.81-1.817,0.569c-0.622-0.29-0.665-0.885-0.67-1.466c-0.002-0.261,0.047-0.53,0.116-0.784
		c0.272-1,0.805-1.875,1.378-2.722c1.054-1.557,2.127-3.101,3.191-4.651c0.886-1.291,1.422-2.718,1.54-4.276
		c0.25-3.314-0.608-6.362-2.355-9.161c-1.61-2.579-3.868-4.221-6.944-4.635c-0.375-0.05-0.62,0.039-0.859,0.306
		c-1.338,1.498-2.222,3.226-2.611,5.194c-0.092,0.468-0.276,0.818-0.639,1.133c-4.049,3.506-7.308,7.634-9.752,12.405
		c-2.176,4.247-3.101,8.693-2.332,13.46c0.805,4.993,3.184,9.081,6.917,12.437c4.018,3.612,8.63,5.848,14.089,6.16
		c0.746,0.043,0.838-0.025,0.951-0.751c0.258-1.657,0.568-3.302,1.21-4.864c0.473-1.15,1.062-2.214,2.163-2.895
		c0.217-0.134,0.283-0.304,0.232-0.568c-0.187-0.971-0.829-1.306-1.706-0.841c-0.704,0.373-1.391,0.778-2.084,1.171
		c-0.35,0.199-0.715,0.257-1.119,0.222c-2.027-0.175-3.844-0.903-5.511-2.042c-1.948-1.33-3.516-3.048-4.945-4.899
		C111.976,55.139,110.147,51.421,110.286,46.82z M113.902,50.247c-0.055,1.437,0.159,2.926,0.631,4.377
		c0.92,2.83,2.758,5.025,4.875,7.023c0.46,0.435,0.943,0.846,1.419,1.264c0.196,0.172,0.41,0.202,0.593-0.01
		c0.201-0.232,0.145-0.45-0.087-0.632c-0.08-0.063-0.167-0.118-0.247-0.182c-3.92-3.159-6.218-7.099-5.873-12.29
		c0.113-1.696,0.344-3.375,1.075-4.94c0.667-1.429,1.69-2.449,3.282-2.782c0.626-0.131,0.991-0.558,1.258-1.071
		c0.378-0.725,0.1-1.154-0.711-1.105c-2.078,0.126-3.473,1.286-4.457,3.024C114.389,45.166,113.85,47.592,113.902,50.247z
		 M183.246,92.07c-0.182-0.428-0.362-0.857-0.545-1.285c-0.6-1.406-1.359-2.74-1.792-4.221c-0.374-1.278-0.282-2.438,0.517-3.543
		c0.513-0.71,0.955-1.473,1.242-2.312c0.089-0.26,0.17-0.519-0.119-0.711c-0.293-0.195-0.536-0.082-0.77,0.127
		c-0.614,0.546-1.176,1.139-1.569,1.866c-0.747,1.384-1.042,2.819-0.46,4.352C180.555,88.461,181.834,90.298,183.246,92.07z
		 M198.416,80.494c0.506-1.162,1.248-2,2.277-2.581c0.511-0.289,0.123-0.637,0.104-0.96c-0.02-0.338-0.275-0.295-0.499-0.274
		c-0.94,0.085-1.763,0.463-2.511,1.02c-0.195,0.145-0.306,0.331-0.211,0.582C197.853,79.019,198.135,79.756,198.416,80.494z"/>
	<path style="fill:white;" d="M151.661,142.502c-0.807-0.218-1.622-0.417-2.353-0.846c-0.246-0.145-0.494-0.291-0.718-0.466
		c-0.237-0.186-0.578-0.412-0.491-0.713c0.087-0.299,0.492-0.193,0.766-0.222c1.257-0.13,2.515-0.253,3.771-0.266
		c-1.326,0-2.652-0.001-3.979,0.001c-0.193,0-0.451,0.147-0.546-0.1c-0.083-0.218,0.158-0.366,0.306-0.483
		c1.291-1.015,2.761-1.65,4.361-1.985c2.433-0.509,4.663-0.08,6.632,1.485c0.542,0.431,0.538,0.517-0.019,0.948
		c-1.652,1.278-3.455,2.24-5.525,2.647C153.132,142.502,152.397,142.502,151.661,142.502z"/>
	<path style="fill:white;" d="M137.313,142.502c-2.07-0.407-3.874-1.369-5.525-2.647c-0.556-0.431-0.563-0.52-0.018-0.947
		c2.51-1.971,5.268-2.086,8.161-1.051c1.002,0.359,1.955,0.833,2.79,1.507c0.162,0.131,0.437,0.29,0.346,0.525
		c-0.105,0.271-0.394,0.093-0.604,0.093c-1.305,0.002-2.609,0.001-3.918-0.104c1.318,0.128,2.637,0.254,3.955,0.385
		c0.217,0.021,0.513-0.03,0.594,0.211c0.077,0.229-0.159,0.41-0.318,0.555c-0.696,0.632-1.543,0.983-2.429,1.251
		c-0.273,0.082-0.551,0.149-0.826,0.222C138.784,142.502,138.048,142.502,137.313,142.502z"/>
	<path style="fill:white;" d="M142.563,134.196c0.401,1.343,0.807,2.684,1.198,4.03c0.07,0.242,0.282,0.58,0.046,0.731
		c-0.246,0.157-0.545-0.113-0.75-0.292c-2-1.749-3.477-3.833-4.064-6.472c-0.358-1.608-0.307-3.2,0.193-4.774
		c0.101-0.317,0.211-0.599,0.635-0.361c2.308,1.295,4.306,2.897,5.339,5.44c0.176,0.432,0.289,0.89,0.44,1.365
		c0.714-3.184,2.877-5.142,5.539-6.682c0.6-0.347,0.701-0.313,0.892,0.347c0.76,2.61,0.375,5.093-0.892,7.458
		c-0.74,1.381-1.732,2.571-2.916,3.598c-0.242,0.21-0.569,0.536-0.841,0.37c-0.273-0.167-0.012-0.561,0.068-0.838
		c0.377-1.308,0.777-2.61,1.147-3.922c-0.57,1.322-1.052,2.678-1.499,4.047c-0.072,0.22-0.059,0.572-0.33,0.598
		c-0.281,0.027-0.415-0.296-0.548-0.516c-0.321-0.53-0.449-1.134-0.626-1.805c-0.212,0.712-0.328,1.391-0.731,1.952
		c-0.115,0.16-0.223,0.4-0.445,0.377c-0.242-0.025-0.236-0.301-0.296-0.483C143.661,136.951,143.171,135.552,142.563,134.196z"/>
	<path style="fill:white;" d="M157.485,129.003c-0.548,1.091-1.091,2.184-1.646,3.272c-0.086,0.169-0.107,0.449-0.363,0.431
		c-0.222-0.016-0.312-0.261-0.386-0.439c-0.52-1.254-0.521-2.544-0.191-3.839c0.447-1.751,1.499-3.106,2.855-4.247
		c1.021-0.859,2.162-1.532,3.376-2.082c0.648-0.293,0.749-0.234,0.861,0.477c0.301,1.909-0.108,3.696-0.976,5.384
		c-0.972,1.889-2.423,3.369-4.125,4.612c-0.24,0.176-0.583,0.448-0.816,0.269c-0.231-0.178,0.052-0.519,0.158-0.766
		c0.434-1.011,0.89-2.014,1.337-3.019C157.541,129.037,157.513,129.02,157.485,129.003z"/>
	<path style="fill:white;" d="M133.606,129.043c0.463,1.041,0.932,2.08,1.384,3.126c0.092,0.213,0.327,0.5,0.128,0.667
		c-0.214,0.181-0.514-0.05-0.714-0.195c-2.513-1.831-4.47-4.062-5.131-7.214c-0.203-0.97-0.254-1.941-0.076-2.919
		c0.116-0.635,0.222-0.703,0.804-0.429c2.432,1.142,4.597,2.598,5.825,5.107c0.679,1.387,0.839,2.848,0.514,4.359
		c-0.034,0.159-0.069,0.324-0.139,0.469c-0.129,0.268-0.194,0.675-0.528,0.684c-0.276,0.008-0.312-0.386-0.428-0.614
		c-0.52-1.018-1.028-2.042-1.541-3.064C133.672,129.027,133.639,129.035,133.606,129.043z"/>
	<path style="fill:white;" d="M124.655,124.793c0.387,0.916,1.001,1.726,1.44,2.717c-0.402,0.033-0.682-0.098-0.931-0.247
		c-2.349-1.408-4.365-3.152-5.583-5.672c-0.504-1.044-0.768-2.142-0.716-3.314c0.019-0.429,0.14-0.618,0.587-0.459
		c2.275,0.809,4.416,1.846,5.991,3.753c1.176,1.423,1.804,3.043,1.491,4.93c-0.023,0.139-0.057,0.28-0.111,0.411
		c-0.069,0.167-0.128,0.384-0.327,0.411c-0.218,0.029-0.279-0.204-0.377-0.348C125.627,126.251,125.142,125.521,124.655,124.793z"/>
	<path style="fill:white;" d="M165.075,127.51c0.464-0.986,1.048-1.799,1.462-2.719c-0.453,0.669-0.898,1.343-1.362,2.004
		c-0.142,0.202-0.213,0.586-0.522,0.504c-0.282-0.075-0.34-0.432-0.398-0.713c-0.262-1.278,0.009-2.475,0.568-3.623
		c0.605-1.244,1.543-2.198,2.646-3.008c1.265-0.928,2.674-1.572,4.142-2.096c0.591-0.211,0.671-0.135,0.699,0.481
		c0.072,1.575-0.449,2.978-1.272,4.279c-1.24,1.96-2.964,3.414-4.933,4.597C165.832,127.379,165.539,127.529,165.075,127.51z"/>
	<path style="fill:white;" d="M160.804,133.87c-1.01,0-2.316-0.002-3.621,0.003c-0.18,0.001-0.418,0.099-0.506-0.086
		c-0.112-0.235,0.146-0.362,0.298-0.46c1.567-1.017,3.28-1.632,5.142-1.831c1.743-0.186,3.373,0.134,4.865,1.073
		c0.241,0.152,0.467,0.331,0.682,0.518c0.525,0.455,0.521,0.564-0.065,0.935c-1.826,1.155-3.726,2.137-5.927,2.331
		c-1.664,0.146-3.204-0.222-4.573-1.212c-0.082-0.06-0.163-0.125-0.233-0.198c-0.171-0.176-0.405-0.377-0.34-0.617
		c0.081-0.3,0.411-0.184,0.638-0.202C158.466,134.027,159.769,133.941,160.804,133.87z"/>
	<path style="fill:white;" d="M130.004,133.846c1.406,0.095,2.744,0.184,4.081,0.278c0.196,0.014,0.466-0.061,0.554,0.154
		c0.106,0.26-0.117,0.466-0.29,0.624c-0.872,0.799-1.932,1.194-3.082,1.386c-2.032,0.339-3.884-0.252-5.67-1.122
		c-0.714-0.348-1.379-0.795-2.077-1.178c-0.503-0.277-0.437-0.543-0.051-0.873c1.532-1.307,3.332-1.779,5.298-1.653
		c1.76,0.113,3.392,0.692,4.935,1.53c0.09,0.049,0.184,0.093,0.264,0.155c0.223,0.17,0.626,0.331,0.546,0.591
		c-0.103,0.337-0.5,0.102-0.766,0.104C132.523,133.851,131.298,133.846,130.004,133.846z"/>
	<path style="fill:white;" d="M114.486,120.374c0.632,0.83,1.34,1.61,1.982,2.512c-0.341,0.162-0.591,0.045-0.812-0.055
		c-2.501-1.131-4.782-2.566-6.457-4.806c-0.594-0.794-1.014-1.674-1.194-2.656c-0.104-0.566,0.021-0.704,0.556-0.587
		c1.842,0.402,3.637,0.948,5.24,1.974c1.745,1.117,3.086,2.542,3.363,4.714c0.01,0.081,0.026,0.162,0.03,0.243
		c0.017,0.372,0.052,0.841-0.28,1.008c-0.346,0.174-0.505-0.304-0.715-0.518C115.614,121.609,115.055,120.986,114.486,120.374z"/>
	<path style="fill:white;" d="M174.694,122.907c0.652-0.911,1.363-1.702,2.065-2.502c-0.751,0.63-1.376,1.379-2.038,2.092
		c-0.118,0.127-0.221,0.35-0.435,0.264c-0.179-0.072-0.226-0.286-0.256-0.466c-0.13-0.773,0.058-1.506,0.343-2.211
		c0.566-1.399,1.598-2.406,2.832-3.217c1.666-1.095,3.535-1.672,5.461-2.096c0.532-0.117,0.594,0.168,0.514,0.588
		c-0.231,1.219-0.818,2.261-1.609,3.194c-1.635,1.929-3.725,3.225-5.996,4.261C175.341,122.92,175.088,123.017,174.694,122.907z"/>
	<path style="fill:white;" d="M121.97,128.639c1.019,0,2.038-0.005,3.056,0.004c0.236,0.002,0.559-0.056,0.652,0.208
		c0.095,0.271-0.138,0.499-0.343,0.67c-1.368,1.141-2.972,1.482-4.701,1.323c-2.091-0.193-3.98-1.008-5.824-1.955
		c-0.479-0.246-0.383-0.479-0.074-0.781c1.192-1.168,2.682-1.611,4.288-1.687c2.064-0.098,3.997,0.471,5.849,1.339
		c0.25,0.117,0.655,0.28,0.591,0.535c-0.077,0.306-0.495,0.14-0.76,0.146c-0.911,0.02-1.823,0.008-2.734,0.008
		C121.969,128.51,121.969,128.575,121.97,128.639z"/>
	<path style="fill:white;" d="M169.14,128.445c-1,0-1.999,0.003-2.999-0.003c-0.153-0.001-0.382,0.065-0.437-0.114
		c-0.067-0.215,0.174-0.308,0.318-0.393c1.012-0.598,2.121-0.953,3.257-1.222c1.741-0.413,3.477-0.465,5.188,0.162
		c0.778,0.285,1.477,0.696,2.048,1.307c0.203,0.217,0.347,0.436-0.022,0.631c-2.205,1.161-4.472,2.137-7.033,2.057
		c-1.181-0.037-2.297-0.369-3.271-1.076c-0.165-0.119-0.325-0.25-0.464-0.397c-0.139-0.148-0.3-0.331-0.228-0.54
		c0.079-0.229,0.334-0.206,0.53-0.208c1.058-0.008,2.115-0.004,3.173-0.004C169.179,128.577,169.159,128.511,169.14,128.445z"/>
	<path style="fill:white;" d="M106.351,119.484c-0.328,0.17-0.596,0.054-0.833-0.017c-2.352-0.708-4.64-1.573-6.641-3.041
		c-0.859-0.63-1.644-1.348-2.116-2.335c-0.271-0.568-0.203-0.695,0.419-0.679c2.452,0.065,4.829,0.451,7.002,1.685
		c0.903,0.513,1.651,1.191,2.216,2.065c0.223,0.345,0.405,0.713,0.502,1.11c0.085,0.352,0.237,0.801-0.108,1.021
		c-0.28,0.178-0.509-0.24-0.761-0.389c-0.209-0.123-0.395-0.285-0.618-0.403C105.65,118.872,106.113,119.037,106.351,119.484z"/>
	<path style="fill:white;" d="M185.758,118.461c-0.325,0.24-0.655,0.474-0.973,0.723c-0.396,0.311-0.541,0.114-0.577-0.28
		c-0.035-0.375,0.074-0.727,0.222-1.067c0.63-1.442,1.76-2.38,3.134-3.047c2.039-0.991,4.224-1.337,6.468-1.379
		c0.58-0.011,0.648,0.117,0.403,0.652c-0.348,0.76-0.908,1.357-1.537,1.881c-2.179,1.815-4.757,2.808-7.446,3.558
		c-0.178,0.05-0.447,0.2-0.547-0.031c-0.093-0.214,0.195-0.321,0.337-0.452c0.178-0.166,0.375-0.311,0.564-0.465
		C185.789,118.523,185.774,118.492,185.758,118.461z"/>
	<path style="fill:white;" d="M112.903,124.061c0.974,0,1.949-0.003,2.923,0.003c0.155,0.001,0.358-0.052,0.441,0.123
		c0.087,0.184-0.026,0.36-0.145,0.501c-0.578,0.682-1.355,1.031-2.188,1.274c-1.45,0.422-2.908,0.309-4.361,0.019
		c-1.282-0.256-2.53-0.64-3.751-1.104c-0.564-0.215-0.601-0.369-0.181-0.814c1.005-1.063,2.305-1.538,3.712-1.682
		c2.041-0.208,4.026,0.124,5.947,0.832c0.277,0.102,0.747,0.22,0.709,0.478c-0.052,0.357-0.51,0.177-0.79,0.202
		c-0.77,0.068-1.543,0.102-2.315,0.15C112.902,124.047,112.902,124.054,112.903,124.061z"/>
	<path style="fill:white;" d="M178.259,124.034c-0.895-0.048-1.79-0.095-2.684-0.147c-0.157-0.009-0.379,0.029-0.425-0.157
		c-0.05-0.196,0.178-0.251,0.312-0.315c1.304-0.627,2.704-0.926,4.127-1.044c1.488-0.124,2.98-0.078,4.377,0.584
		c0.652,0.309,1.249,0.691,1.705,1.263c0.18,0.226,0.24,0.444-0.107,0.571c-2.5,0.912-5.014,1.769-7.742,1.303
		c-0.956-0.163-1.848-0.511-2.571-1.195c-0.194-0.183-0.437-0.4-0.341-0.671c0.099-0.281,0.425-0.158,0.651-0.161
		c0.897-0.013,1.795-0.005,2.692-0.005C178.255,124.051,178.257,124.042,178.259,124.034z"/>
	<path style="fill:white;" d="M89.781,114.003c1.527-0.001,3.013,0.202,4.409,0.864c0.789,0.374,1.484,0.862,1.943,1.628
		c0.5,0.836,0.264,1.254-0.709,1.282c-0.944,0.027-1.87-0.132-2.801-0.255c-1.701-0.225-3.388-0.523-5.017-1.08
		c-0.815-0.279-1.586-0.654-2.245-1.223c-0.136-0.117-0.322-0.24-0.275-0.443c0.049-0.213,0.286-0.212,0.453-0.25
		C86.935,114.207,88.346,114.005,89.781,114.003z"/>
	<path style="fill:white;" d="M201.454,114.003c1.393,0.009,2.764,0.201,4.121,0.507c0.19,0.043,0.46,0.038,0.514,0.259
		c0.062,0.252-0.189,0.388-0.356,0.525c-0.607,0.497-1.297,0.863-2.036,1.105c-2.535,0.832-5.151,1.228-7.81,1.384
		c-0.417,0.024-0.821-0.083-1.028-0.377c-0.234-0.331,0.05-0.703,0.252-1.007c0.747-1.126,1.906-1.629,3.133-2.001
		C199.287,114.082,200.367,114.001,201.454,114.003z"/>
	<path style="fill:white;" d="M186.751,120.604c-0.567-0.099-1.134-0.197-1.759-0.306c0.224-0.34,0.521-0.379,0.785-0.439
		c2.112-0.48,4.23-0.633,6.354-0.07c1.107,0.293,2.112,0.764,2.853,1.674c0.449,0.552,0.372,0.727-0.333,0.842
		c-1.832,0.298-3.665,0.593-5.531,0.49c-1.296-0.072-2.562-0.292-3.635-1.094c-0.362-0.27-0.934-0.581-0.717-1.074
		c0.145-0.328,0.738-0.085,1.131-0.06c0.283,0.019,0.564,0.056,0.846,0.084C186.747,120.636,186.749,120.62,186.751,120.604z"/>
	<path style="fill:white;" d="M106.181,120.236c-0.595,0.277-1.206,0.202-1.893,0.424c0.682-0.061,1.227-0.109,1.772-0.159
		c0.536-0.049,0.496,0.246,0.295,0.551c-0.297,0.452-0.74,0.754-1.213,1.006c-0.844,0.45-1.766,0.642-2.702,0.716
		c-2.07,0.164-4.107-0.167-6.139-0.507c-0.457-0.077-0.455-0.329-0.223-0.647c0.587-0.805,1.39-1.307,2.316-1.628
		c2.106-0.728,4.246-0.68,6.399-0.265C105.261,119.818,105.753,119.856,106.181,120.236z"/>
	<path style="fill:white;" d="M215.079,119.84c-2.676-0.165-5.135-0.656-7.595-1.133c-0.42-0.081-0.84-0.161-1.258-0.252
		c-0.331-0.072-0.625-0.282-0.708-0.577c-0.093-0.333,0.233-0.542,0.486-0.708c0.68-0.446,1.434-0.666,2.246-0.711
		c2.271-0.126,4.35,0.544,6.349,1.53c0.603,0.297,1.179,0.649,1.759,0.991c0.165,0.097,0.446,0.164,0.396,0.404
		c-0.044,0.214-0.318,0.239-0.511,0.276C215.805,119.743,215.36,119.798,215.079,119.84z"/>
	<path style="fill:white;" d="M76.198,119.829c-0.46-0.02-0.989-0.062-1.495-0.238c-0.295-0.103-0.451-0.258-0.089-0.483
		c2.622-1.629,5.37-2.86,8.558-2.633c0.72,0.051,1.399,0.284,2.002,0.693c0.251,0.17,0.581,0.374,0.486,0.707
		c-0.084,0.293-0.374,0.512-0.707,0.58c-1.018,0.207-2.035,0.421-3.058,0.602C80.031,119.389,78.166,119.732,76.198,119.829z"/>
	<path style="fill:white;" d="M86.696,121.775c-0.339,0.022-0.451-0.124-0.324-0.444c0.226-0.571,0.637-0.989,1.118-1.347
		c1.54-1.146,3.323-1.614,5.191-1.794c0.907-0.088,1.823-0.245,2.738-0.038c0.175,0.039,0.176,0.038,0.274,0.328
		c0.004,0.012-0.016,0.033-0.025,0.05c0.06,0.003,0.121,0.012,0.18,0.007c0.573-0.052,0.447,0.286,0.287,0.568
		c-0.224,0.398-0.59,0.669-0.967,0.918c-0.901,0.595-1.912,0.885-2.957,1.109C90.393,121.52,88.541,121.608,86.696,121.775z"/>
	<path style="fill:white;" d="M196.856,118.076c2.131,0.092,4.229,0.333,6.121,1.439c0.729,0.426,1.407,0.912,1.787,1.704
		c0.168,0.351,0.153,0.601-0.344,0.555c-2.087-0.194-4.186-0.29-6.23-0.819c-0.858-0.222-1.659-0.56-2.382-1.075
		c-0.301-0.214-0.573-0.461-0.771-0.776c-0.101-0.16-0.189-0.459-0.043-0.492c0.443-0.098,0.667-0.637,1.191-0.544
		C196.402,118.108,196.632,118.076,196.856,118.076z"/>
	<path style="fill:white;" d="M77.058,123.824c0.06-0.293,0.197-0.543,0.351-0.785c0.591-0.93,1.392-1.637,2.312-2.235
		c1.541-1.003,3.211-1.676,5.004-2.06c0.04-0.009,0.08-0.015,0.12-0.024c0.376-0.088,0.797-0.022,0.997,0.24
		c0.245,0.321-0.092,0.653-0.307,0.908c-0.671,0.792-1.525,1.371-2.449,1.801c-1.812,0.842-3.656,1.614-5.491,2.404
		C77.355,124.175,77.006,124.384,77.058,123.824z"/>
	<path style="fill:white;" d="M206.095,118.675c0.311,0.061,0.637,0.102,0.949,0.191c2.221,0.634,4.305,1.531,5.967,3.204
		c0.462,0.465,0.857,0.987,1.076,1.618c0.052,0.149,0.113,0.342-0.036,0.455c-0.071,0.053-0.243,0.024-0.344-0.023
		c-2.386-1.093-4.94-1.835-7.108-3.384c-0.401-0.286-0.777-0.6-1.059-1.007c-0.159-0.229-0.407-0.497-0.213-0.77
		C205.48,118.743,205.81,118.728,206.095,118.675z"/>
</g>
</svg>
